<svg width="13" height="10" viewBox="0 0 13 10" fill="none" xmlns="http://www.w3.org/2000/svg">
<path d="M12.197 5L12.4756 5.27856L12.7534 5L12.4756 4.72143L12.197 5ZM0.393453 4.60655C0.289102 4.60655 0.189026 4.648 0.11524 4.72179C0.0414528 4.79557 -2.23118e-07 4.89565 -2.18557e-07 5C-2.13996e-07 5.10435 0.0414528 5.20443 0.11524 5.27821C0.189026 5.352 0.289103 5.39345 0.393453 5.39345L0.393453 4.60655ZM7.75417 10L12.4756 5.27856L11.9185 4.72143L7.19704 9.44287L7.75417 10ZM12.4756 4.72143L7.75417 -3.38946e-07L7.19704 0.557129L11.9185 5.27856L12.4756 4.72143ZM12.197 4.60655L0.393453 4.60655L0.393453 5.39345L12.197 5.39345L12.197 4.60655Z" fill="white"/>
</svg>
