<svg width="2749" height="670" viewBox="0 0 2749 670" fill="none" xmlns="http://www.w3.org/2000/svg">
<path d="M1398.39 284.655C1388.19 284.655 1384.67 281.487 1386.55 273.278L1404.25 203.72H1508.93L1520.77 158.092H1416.09L1427.93 111.759C1431.09 99.6778 1439.65 89.3556 1456.53 89.3556H1540.34L1552.18 43.7271H1430.39C1379.87 43.7271 1364.74 52.7589 1345.05 128.767L1308.95 267.764C1297.81 314.449 1311.64 334.74 1349.74 334.74H1454.77C1475.4 334.74 1488.76 323.714 1495.21 306.824L1503.89 284.655H1398.39Z" fill="black"/>
<path d="M2595.22 284.655C2585.01 284.655 2581.5 281.487 2583.37 273.278L2601.06 203.72H2705.76L2717.58 158.092H2612.91L2624.74 111.759C2627.91 99.6778 2636.48 89.3556 2653.34 89.3556H2737.17L2749 43.7271H2627.33C2576.81 43.7271 2561.68 52.7589 2541.99 128.767L2505.89 267.764C2494.75 314.449 2508.59 334.74 2546.68 334.74H2651.7C2672.35 334.74 2685.7 323.714 2692.15 306.824L2700.83 284.655H2595.22Z" fill="black"/>
<path d="M939.118 43.7271H834.439L761.528 326.061C760.239 330.871 763.053 334.74 767.86 334.74H861.167C978.387 334.74 998.079 312.338 1030.2 188.002C1057.98 79.9719 1040.75 43.7271 939.118 43.7271ZM872.068 285.123H850.617L901.138 89.4729C907.586 89.4729 910.048 89.1211 926.223 89.1211C971.587 89.1211 971.589 104.135 949.902 188.002C927.981 272.924 915.204 285.123 872.068 285.123Z" fill="black"/>
<path d="M2404.24 43.1323C2343.88 43.1323 2315.86 44.4225 2299.46 43.7188L2226.43 326.052C2225.14 330.862 2227.95 334.733 2232.76 334.733H2302.74L2366.15 89.3473C2372.6 89.3473 2382.46 88.7608 2392.42 88.7608C2426.4 88.7608 2430.86 100.842 2421.96 135.562L2372.71 325.934C2371.44 330.744 2374.24 334.615 2379.04 334.615H2449.04L2500.48 135.562C2518.08 66.7089 2487.82 43.1323 2404.24 43.1323Z" fill="black"/>
<path d="M1798.11 43.7271L1786.04 90.9977H1863.76C1864.58 90.9977 1864.58 91.9363 1863.88 92.5226C1851.45 101.906 1843.83 115.278 1840.31 129.119L1789.32 326.061C1788.03 330.871 1790.96 334.74 1795.65 334.74H1870.79L1933.97 90.9977H1972.42C1993.99 90.9977 2007.12 81.9659 2014.5 63.0812L2021.89 43.7271H1798.11Z" fill="black"/>
<path d="M708.544 334.85L781.573 52.5167C782.862 47.7075 780.048 43.8369 775.243 43.8369H701.277L628.248 326.172C626.959 330.979 629.773 334.85 634.578 334.85H708.544Z" fill="black"/>
<path d="M2141.91 39.7227C2053.88 39.7227 2015.67 55.4406 1980.97 189.276C1950.96 305.283 1974.99 338.831 2064.55 338.831C2155.63 338.831 2191.73 320.062 2225.49 189.276C2249.99 94.6177 2245.07 39.7227 2141.91 39.7227ZM2077.33 289.916C2043.8 289.916 2038.76 277.717 2062.21 186.93C2081.66 111.391 2100.3 85.1167 2130.31 85.1167C2163.84 85.1167 2167.59 103.18 2145.9 186.93C2124.45 269.977 2103.23 289.916 2077.33 289.916Z" fill="black"/>
<path d="M45.7814 191.52L91.3801 31.6441C95.8344 15.2225 114.004 0.208496 132.29 0.208496H271.666C274.01 0.208496 274.713 3.2582 272.955 4.54847C200.512 54.1652 113.183 127.71 49.767 193.631C48.1259 195.273 45.1953 193.866 45.7814 191.52Z" fill="#ED1C24"/>
<path d="M155.847 287.47L200.977 129.705C201.68 127.359 199.101 125.6 197.108 127.242C130.762 184.366 50.7003 267.764 0.647175 330.871C-0.642249 332.511 0.0610408 334.975 2.17101 334.975H197.343C279.631 334.975 324.643 309.522 341.054 248.526C354.418 198.91 328.395 165.012 286.899 156.214C286.196 156.097 285.492 154.69 286.899 154.455C322.065 148.473 357.465 134.28 370.008 83.0212C383.723 27.5396 341.29 -2.84026 292.526 0.209463L217.974 261.547C213.988 275.74 198.867 287.588 184.449 287.588H155.847" fill="black"/>
<path d="M579.955 218.14C577.377 209.46 574.564 203.126 570.343 197.965C569.756 197.261 569.641 196.44 570.694 196.088C604.103 185.766 626.023 164.653 635.284 128.877C647.475 81.4892 617.7 43.8369 542.329 43.8369H430.382L357.353 326.172C356.064 330.979 358.878 334.85 363.685 334.85H433.665L497.081 89.4654C503.88 89.4654 510.327 89.1134 526.502 89.1134C553.463 89.1134 563.427 105.77 557.684 128.291C550.065 157.85 527.089 174.506 499.777 174.506H489.463L518.533 315.379C521.931 329.103 528.847 334.733 544.671 334.733H607.15L579.955 218.14Z" fill="black"/>
<path d="M1532.37 236.198C1502.72 307.043 1541.4 339.184 1620.06 339.184C1691.91 339.184 1731.77 322.058 1748.76 256.02C1754.62 233.499 1750.87 209.101 1736.92 193.97C1710.08 164.763 1658.39 159.25 1640.22 142.359C1630.96 133.797 1631.07 121.715 1633.77 111.275C1638.69 92.2734 1651.47 81.8341 1672.22 81.8341C1704.69 81.8341 1705.51 101.774 1697.54 125.586H1767.17C1783.58 76.0863 1762.13 37.2612 1680.07 37.2612C1611.03 37.2612 1573.75 64.3566 1560.39 116.319C1556.64 130.512 1558.05 153.854 1566.6 168.399C1585.59 200.89 1635.76 204.996 1663.54 224.232C1675.62 232.677 1675.97 243.938 1672.8 256.371C1666.59 280.651 1654.4 292.148 1630.14 292.148C1606.81 292.148 1592.86 278.54 1606.22 236.08H1532.37" fill="black"/>
<path d="M1211.89 189.87L1185.75 286.054C1180.24 286.523 1173.33 287.343 1162.66 287.343C1111.32 287.343 1117.06 271.862 1138.74 188.111C1161.25 101.077 1174.38 85.1242 1206.38 85.1242C1237.21 85.1242 1237.44 105.886 1229.59 132.16H1307.78C1320.44 83.1302 1312 39.6128 1220.56 39.6128C1118.7 39.6128 1091.04 61.0782 1058.21 188.111C1027.62 306.345 1037.7 337.664 1147.77 337.664C1199.93 337.664 1221.85 333.795 1253.62 328.045L1290.43 189.87H1211.89Z" fill="black"/>
<path d="M235.557 582.088C232.158 595.46 225.242 605.899 215.044 613.407C204.846 620.912 191.6 624.665 175.306 624.665C171.438 624.665 167.452 624.432 163.115 623.845C158.778 623.259 154.91 622.554 151.276 621.616C147.642 620.678 144.712 619.505 142.367 618.216C140.023 616.807 138.851 615.282 138.968 613.522V612.466L142.602 598.04C143.071 595.811 144.477 594.638 146.587 594.638C147.759 594.638 148.932 595.107 150.221 596.162C151.511 597.218 153.269 598.274 155.613 599.447C157.958 600.621 160.888 601.794 164.639 602.732C168.39 603.788 173.079 604.257 178.94 604.257C188.318 604.257 195.468 602.145 200.274 597.923C205.197 593.7 207.776 588.304 208.011 581.736C208.128 579.272 207.542 576.927 206.252 574.58C204.963 572.235 202.853 569.888 199.688 567.426L178.471 551.004C173.782 547.25 170.266 543.379 168.039 539.156C165.694 534.933 164.756 530.009 164.991 524.259C165.108 522.734 165.225 521.092 165.577 519.567C165.811 518.043 166.163 516.4 166.515 514.642C169.914 501.505 176.713 491.769 187.028 485.199C197.226 478.75 209.886 475.465 225.008 475.465C228.524 475.465 232.276 475.816 236.025 476.285C239.777 476.872 243.293 477.694 246.576 478.632C249.74 479.688 252.436 480.861 254.548 482.268C256.657 483.675 257.595 485.084 257.595 486.49V487.195L253.728 502.677C253.374 503.499 253.023 504.319 252.436 504.906C251.852 505.493 251.029 505.844 249.976 505.844C248.687 505.844 247.396 505.375 245.991 504.319C244.584 503.381 242.942 502.208 240.833 500.919C238.724 499.627 236.025 498.454 232.627 497.516C229.228 496.46 225.008 495.992 219.733 495.992C214.106 495.992 209.535 496.812 206.135 498.454C202.736 500.096 200.157 501.974 198.281 504.086C196.523 506.197 195.234 508.424 194.648 510.653C194.061 512.882 193.71 514.758 193.71 516.049C193.593 518.747 194.296 521.328 195.937 523.79C197.578 526.255 200.509 528.953 204.728 531.884L221.022 543.379C227.235 547.837 231.572 552.06 234.152 556.047C236.612 560.154 237.786 564.961 237.55 570.711C237.199 574.347 236.612 578.098 235.557 582.088Z" fill="black"/>
<path d="M363.919 567.442C361.81 575.77 358.763 583.395 354.661 590.316C350.558 597.352 345.635 603.335 339.772 608.496C333.911 613.659 327.231 617.646 319.612 620.462C311.991 623.275 303.552 624.8 294.173 624.8C279.169 624.8 268.035 621.164 261.001 614.01C253.969 606.853 250.686 596.883 251.273 584.333C251.506 579.29 252.326 573.894 253.851 568.029C255.96 559.702 259.009 552.076 263.112 545.156C267.215 538.119 272.138 532.136 277.998 527.091C283.859 522.049 290.54 518.062 298.161 515.246C305.779 512.43 314.218 511.023 323.597 511.023C338.601 511.023 349.738 514.541 356.77 521.697C363.804 528.852 367.084 538.704 366.5 551.256C366.264 556.299 365.444 561.695 363.919 567.442ZM336.256 566.973C337.781 560.991 338.719 555.712 338.834 551.138C339.188 543.398 337.663 537.884 334.147 534.599C330.629 531.198 325.473 529.556 318.556 529.556C309.649 529.556 302.146 532.605 296.049 538.588C289.955 544.569 285.148 554.541 281.514 568.616C279.992 574.95 279.054 580.228 278.936 584.451C278.585 592.192 280.107 597.706 283.508 601.106C286.906 604.509 292.182 606.269 299.214 606.269C308.006 606.269 315.509 603.217 321.603 597.237C327.7 591.254 332.622 581.166 336.256 566.973Z" fill="black"/>
<path d="M395.916 619.052C395.331 621.633 393.924 622.922 391.462 622.922H372.473C370.362 622.922 369.308 621.866 369.424 619.99V619.168L407.053 472.783C407.639 470.201 409.162 468.912 411.858 468.912H430.849C432.84 468.912 433.778 469.849 433.66 471.728V472.312L395.916 619.052Z" fill="black"/>
<path d="M517.941 619.045C517.357 621.626 515.832 622.917 513.254 622.917H494.967C493.209 622.917 492.387 622.212 492.505 620.806V619.75C492.505 619.045 492.036 618.694 490.865 618.694C489.107 618.694 487.346 619.045 485.471 619.632C483.597 620.219 481.486 620.921 479.025 621.626C476.563 622.33 473.749 623.032 470.584 623.619C467.42 624.206 463.668 624.559 459.214 624.559C454.643 624.559 450.422 624.088 446.555 623.268C442.686 622.448 439.287 621.039 436.474 619.045C433.66 617.17 431.433 614.587 430.026 611.538C428.502 608.489 427.917 604.853 428.033 600.512C428.151 597.696 428.619 594.414 429.324 590.778C430.026 587.14 430.964 583.035 432.253 578.461L448.195 516.41C448.782 513.829 450.307 512.541 452.885 512.541H472.227C474.1 512.541 474.923 513.361 474.923 515.121V515.823L457.925 582.215C457.105 585.733 456.518 588.667 456.518 591.011C456.283 595.821 457.574 599.457 460.27 601.686C462.966 603.915 467.771 605.086 474.336 605.086C479.846 605.086 485.004 604.03 489.573 602.037C494.263 600.043 497.076 596.641 498.366 591.949L517.708 516.41C518.292 513.829 519.699 512.541 522.162 512.541H541.504C543.495 512.541 544.433 513.478 544.315 515.354V516.059L517.941 619.045Z" fill="black"/>
<path d="M608.088 616.712C607.734 618.239 606.563 619.528 604.57 620.584C602.578 621.522 600.351 622.344 597.653 622.931C594.957 623.518 592.261 623.987 589.332 624.22C586.401 624.455 583.941 624.689 581.711 624.689C577.844 624.689 574.21 624.455 570.694 623.987C567.176 623.518 564.011 622.462 561.316 620.935C558.62 619.41 556.511 617.066 554.986 613.899C553.461 610.732 552.877 606.627 553.11 601.464C553.346 597.477 554.166 592.55 555.69 586.685L569.288 533.314V532.845C569.288 531.79 568.819 531.321 567.645 531.321H557.448C555.222 531.321 554.048 530.383 554.166 528.505C554.166 528.154 554.166 528.036 554.284 527.803C554.399 527.685 554.399 527.449 554.399 527.098L556.98 516.424C557.682 513.843 559.324 512.554 562.02 512.554H572.217C573.624 512.554 574.562 511.732 575.148 509.974L580.54 488.39C581.242 485.694 582.885 484.285 585.463 484.285H603.985C606.212 484.285 607.383 485.107 607.265 486.865V487.921L601.64 509.974V510.794C601.64 511.968 602.109 512.554 603.281 512.554H630.71C632.82 512.554 633.875 513.375 633.757 514.899V515.721L630.944 526.98C630.241 529.678 628.601 531.088 626.021 531.088H598.591C597.069 531.088 596.013 531.908 595.544 533.668L581.36 588.914C581.127 589.736 581.009 590.556 580.891 591.494C580.773 592.316 580.658 593.254 580.658 594.074C580.54 597.241 581.127 599.822 582.649 601.933C584.174 604.044 587.105 604.984 591.677 604.984C594.373 604.984 596.6 604.749 598.358 604.398C600.116 603.929 601.756 603.46 603.047 602.873C604.336 602.286 605.507 601.817 606.445 601.349C607.383 600.877 608.203 600.762 608.908 600.762C610.666 600.762 611.368 601.582 611.368 603.106V603.929L608.088 616.712Z" fill="black"/>
<path d="M651.566 619.045C650.98 621.626 649.573 622.917 647.113 622.917H628.121C626.012 622.917 624.957 621.861 625.074 619.986V619.163L651.331 516.645C651.918 514.065 653.442 512.776 656.138 512.776H675.127C677.121 512.776 678.058 513.714 677.941 515.59V516.294L651.566 619.045ZM688.724 482.277C686.379 491.076 680.168 495.532 670.086 495.532C661.412 495.532 657.191 492.132 657.545 485.444C657.778 480.05 659.772 475.828 663.523 473.012C667.273 470.196 671.844 468.671 677.236 468.671C685.559 468.671 689.662 471.838 689.429 478.29C689.429 478.995 689.311 479.697 689.193 480.166C689.078 480.871 688.96 481.575 688.724 482.277Z" fill="black"/>
<path d="M793.406 567.442C791.297 575.77 788.25 583.395 784.147 590.316C780.044 597.352 775.121 603.335 769.258 608.496C763.398 613.659 756.717 617.646 749.098 620.462C741.477 623.275 733.039 624.8 723.66 624.8C708.656 624.8 697.521 621.164 690.487 614.01C683.455 606.853 680.172 596.883 680.757 584.333C680.992 579.29 681.812 573.894 683.337 568.029C685.446 559.702 688.496 552.076 692.598 545.156C696.701 538.119 701.624 532.136 707.484 527.091C713.345 522.049 720.026 518.062 727.647 515.246C735.265 512.43 743.704 511.023 753.083 511.023C768.087 511.023 779.224 514.541 786.256 521.697C793.29 528.852 796.573 538.704 795.986 551.256C795.868 556.299 794.93 561.695 793.406 567.442ZM765.742 566.973C767.267 560.991 768.205 555.712 768.32 551.138C768.674 543.398 767.149 537.884 763.633 534.599C760.117 531.198 754.959 529.556 748.043 529.556C739.135 529.556 731.632 532.605 725.535 538.588C719.441 544.569 714.634 554.541 711 568.616C709.478 574.95 708.54 580.228 708.422 584.451C708.071 592.192 709.594 597.706 712.994 601.106C716.392 604.509 721.668 606.269 728.7 606.269C737.492 606.269 744.996 603.217 751.09 597.237C757.304 591.254 762.226 581.166 765.742 566.973Z" fill="black"/>
<path d="M895.042 619.055C894.458 621.635 892.933 622.924 890.355 622.924H871.364C869.373 622.924 868.435 621.986 868.55 620.11V619.055L884.846 555.479C885.899 551.843 886.486 548.44 886.604 545.04C886.837 539.762 885.43 536.008 882.383 533.779C879.336 531.55 875.115 530.494 869.724 530.494C867.146 530.494 864.565 530.73 861.869 531.081C859.174 531.55 856.711 532.254 854.484 533.192C852.257 534.248 850.266 535.539 848.506 537.179C846.748 538.821 845.576 540.817 844.99 543.044L825.414 619.055C824.827 621.635 823.42 622.924 820.96 622.924H801.971C799.86 622.924 798.804 621.986 798.922 620.11V619.055L825.181 516.535C825.883 513.954 827.523 512.665 829.986 512.665H848.272C850.03 512.665 850.85 513.37 850.735 514.541C850.735 514.777 850.735 515.01 850.617 515.128C850.499 515.246 850.499 515.481 850.499 515.832C850.499 516.537 851.204 516.888 852.608 516.888C854.369 516.888 856.127 516.535 858.002 515.95C859.876 515.363 862.105 514.659 864.565 513.954C867.028 513.252 869.842 512.548 873.006 511.961C876.053 511.374 879.687 511.023 883.79 511.023C893.753 511.023 901.49 513.016 906.999 517.006C912.509 520.993 915.087 527.327 914.736 535.89C914.502 540.933 913.565 546.68 911.807 553.485L895.042 619.055Z" fill="black"/>
<path d="M995.508 582.691C995.272 589.025 993.75 594.772 991.17 599.935C988.474 605.213 985.076 609.551 980.737 613.187C976.401 616.826 971.243 619.639 965.5 621.633C959.639 623.629 953.31 624.684 946.509 624.684C937.601 624.684 930.1 623.862 924.122 622.104C918.143 620.344 915.212 617.997 915.33 615.065V614.243L918.377 602.046C918.963 599.581 920.37 598.408 922.597 598.408C923.417 598.408 924.473 598.761 925.529 599.581C926.582 600.404 928.107 601.224 930.098 602.28C932.092 603.335 934.554 604.158 937.483 604.978C940.415 605.798 944.4 606.151 949.089 606.151C955.537 606.151 960.224 604.86 963.389 602.28C966.553 599.699 968.196 596.414 968.429 592.192C968.547 590.316 967.96 588.674 966.789 587.149C965.618 585.624 963.742 583.864 960.928 581.871L946.627 571.547C942.406 568.38 939.241 565.213 937.132 561.813C935.023 558.528 934.201 554.541 934.319 550.201C934.554 544.218 935.961 538.821 938.539 534.012C941.117 529.203 944.518 525.098 948.738 521.697C952.956 518.295 958.115 515.597 963.858 513.839C969.721 511.961 975.932 511.023 982.613 511.023C986.247 511.023 989.765 511.256 993.163 511.61C996.446 512.079 999.375 512.665 1001.96 513.485C1004.42 514.308 1006.41 515.363 1007.93 516.535C1009.34 517.708 1010.04 518.882 1010.04 520.173V520.993L1006.76 533.661C1006.41 534.717 1006.06 535.421 1005.59 536.123C1005.12 536.71 1004.18 537.064 1002.78 537.064C1001.84 537.064 1000.78 536.71 999.611 535.89C998.555 535.068 997.148 534.248 995.508 533.31C993.868 532.372 991.756 531.55 989.296 530.73C986.834 529.907 983.669 529.556 979.917 529.556C973.823 529.556 969.134 530.612 966.084 532.723C962.92 534.834 961.279 537.766 961.162 541.286C961.046 543.162 961.515 544.804 962.568 546.211C963.624 547.62 965.149 549.145 967.376 550.669L983.318 562.046C987.654 565.331 990.936 568.616 992.93 572.016C994.803 575.419 995.741 578.937 995.508 582.691Z" fill="black"/>
<path d="M1143.55 527.209C1142.85 529.907 1141.2 531.314 1138.51 531.314H1121.86C1120.34 531.314 1119.29 532.134 1118.82 533.894L1096.9 619.052C1096.31 621.633 1094.9 622.922 1092.44 622.922H1073.1C1071.23 622.922 1070.41 621.984 1070.41 620.108V619.052L1092.33 533.894C1092.33 533.659 1092.33 533.425 1092.44 533.308C1092.56 533.19 1092.56 533.074 1092.56 532.956C1092.56 531.783 1091.97 531.196 1090.57 531.196H1080.37C1078.38 531.196 1077.44 530.376 1077.55 528.616V527.911L1080.37 516.299C1081.07 513.719 1082.71 512.43 1085.17 512.43H1095.37C1096.9 512.43 1097.95 511.607 1098.42 509.849L1101.23 498.706C1103.81 488.618 1108.38 480.875 1115.07 475.481C1121.63 470.085 1130.07 467.505 1140.38 467.505C1146.6 467.505 1151.17 468.092 1153.87 469.263C1156.56 470.436 1157.85 471.961 1157.85 473.721V474.308L1154.8 485.451C1154.1 487.68 1152.93 488.852 1151.05 488.852C1149.76 488.852 1148.59 488.5 1147.54 487.68C1146.48 486.858 1144.61 486.507 1141.91 486.507C1134.41 486.507 1129.48 490.963 1127.26 499.995L1124.91 509.849V510.905C1124.91 511.961 1125.5 512.43 1126.79 512.43H1143.43C1145.54 512.43 1146.6 513.25 1146.48 514.774V515.361L1143.55 527.209Z" fill="black"/>
<path d="M1249.75 567.442C1247.64 575.77 1244.59 583.395 1240.49 590.316C1236.39 597.352 1231.46 603.335 1225.6 608.496C1219.74 613.659 1213.06 617.646 1205.44 620.462C1197.82 623.275 1189.38 624.8 1180 624.8C1165 624.8 1153.86 621.164 1146.83 614.01C1139.8 606.853 1136.52 596.883 1137.1 584.333C1137.34 579.29 1138.16 573.894 1139.68 568.029C1141.79 559.702 1144.84 552.076 1148.94 545.156C1153.04 538.119 1157.97 532.136 1163.83 527.091C1169.69 522.049 1176.37 518.062 1183.99 515.246C1191.61 512.43 1200.05 511.023 1209.43 511.023C1224.43 511.023 1235.56 514.541 1242.6 521.697C1249.63 528.852 1252.91 538.704 1252.33 551.256C1252.09 556.299 1251.27 561.695 1249.75 567.442ZM1222.09 566.973C1223.61 560.991 1224.55 555.712 1224.66 551.138C1225.02 543.398 1223.49 537.884 1219.98 534.599C1216.46 531.198 1211.3 529.556 1204.39 529.556C1195.48 529.556 1187.97 532.605 1181.88 538.588C1175.78 544.569 1170.98 554.541 1167.34 568.616C1165.82 574.95 1164.88 580.228 1164.77 584.451C1164.41 592.192 1165.94 597.706 1169.34 601.106C1172.73 604.509 1178.01 606.269 1185.04 606.269C1193.84 606.269 1201.34 603.217 1207.43 597.237C1213.53 591.254 1218.45 581.166 1222.09 566.973Z" fill="black"/>
<path d="M1342.82 531.674C1342.35 533.786 1341.06 534.841 1339.07 534.841C1338.25 534.841 1337.43 534.724 1336.84 534.606C1336.26 534.49 1335.32 534.255 1334.26 534.021C1333.21 533.786 1331.8 533.55 1330.16 533.435C1328.52 533.199 1326.17 533.081 1323.36 533.081C1317.38 533.081 1312.34 534.372 1308.12 536.953C1304.02 539.533 1301.09 543.756 1299.57 549.621L1281.75 618.944C1281.16 621.524 1279.76 622.813 1277.53 622.813H1258.19C1256.19 622.813 1255.26 621.757 1255.37 619.882V619.062L1281.63 516.544C1282.33 513.964 1283.86 512.672 1286.32 512.672H1304.84C1306.36 512.672 1307.18 513.259 1307.07 514.433C1307.07 514.784 1306.95 515.135 1306.83 515.722C1306.71 516.308 1306.6 517.013 1306.48 517.833C1306.48 518.889 1306.95 519.357 1308.12 519.357C1309.65 519.357 1311.4 518.889 1313.28 518.069C1315.16 517.246 1317.26 516.308 1319.73 515.135C1322.07 514.079 1324.89 513.141 1327.82 512.203C1330.75 511.266 1334.14 510.912 1337.9 510.912C1341.41 510.912 1343.76 511.381 1344.93 512.203C1346.1 513.023 1346.69 514.079 1346.57 515.37V516.426L1342.82 531.674Z" fill="black"/>
<path d="M1499.43 514.527C1499.43 515.347 1498.73 516.989 1497.33 519.219L1420.66 644.023C1415.27 652.82 1409.76 659.387 1404.02 663.61C1398.27 667.832 1391.36 669.944 1383.04 669.944C1375.65 669.944 1372.02 668.773 1372.13 666.543V665.839L1375.18 653.64C1375.65 651.646 1376.82 650.708 1378.7 650.708C1379.4 650.708 1380.1 650.708 1380.92 650.826C1381.75 650.942 1382.92 650.942 1384.44 650.942C1387.26 650.942 1389.83 650.357 1392.06 649.066C1394.29 647.775 1396.52 645.43 1398.63 642.027L1403.43 634.287C1404.61 632.526 1405.43 631.237 1405.78 630.415C1406.13 629.595 1406.25 628.773 1406.36 628.07C1406.36 627.601 1406.36 627.015 1406.36 626.192C1406.36 625.372 1406.25 624.668 1406.13 623.963L1394.64 518.396V517.341C1394.76 515.934 1395.11 514.76 1395.7 513.94C1396.4 513.118 1397.57 512.649 1399.21 512.649H1419.61C1420.78 512.649 1421.48 512.885 1421.95 513.353C1422.31 513.822 1422.66 514.409 1422.77 515.229L1428.17 591.473C1428.17 593.349 1428.63 594.289 1429.34 594.289C1430.16 594.289 1431.09 593.349 1432.27 591.473L1475.52 515.229C1476.58 513.471 1478.22 512.649 1480.56 512.649H1496.51C1498.5 512.649 1499.43 513.236 1499.43 514.527Z" fill="black"/>
<path d="M1818.74 531.674C1818.27 533.786 1816.98 534.841 1814.99 534.841C1814.17 534.841 1813.35 534.724 1812.76 534.606C1812.18 534.49 1811.24 534.255 1810.18 534.021C1809.13 533.786 1807.72 533.55 1806.08 533.435C1804.44 533.199 1802.09 533.081 1799.28 533.081C1793.3 533.081 1788.26 534.372 1784.04 536.953C1779.94 539.533 1777.01 543.756 1775.48 549.621L1757.67 618.944C1757.08 621.524 1755.68 622.813 1753.45 622.813H1734.11C1732.11 622.813 1731.17 621.757 1731.29 619.882V619.062L1757.55 516.544C1758.25 513.964 1759.78 512.672 1762.24 512.672H1780.76C1782.28 512.672 1783.1 513.259 1782.99 514.433C1782.99 514.784 1782.87 515.135 1782.75 515.722C1782.63 516.308 1782.52 517.013 1782.4 517.833C1782.4 518.889 1782.87 519.357 1784.04 519.357C1785.57 519.357 1787.32 518.889 1789.2 518.069C1791.07 517.246 1793.18 516.308 1795.65 515.135C1797.99 514.079 1800.8 513.141 1803.73 512.203C1806.67 511.266 1810.06 510.912 1813.82 510.912C1817.33 510.912 1819.68 511.381 1820.85 512.203C1822.02 513.023 1822.61 514.079 1822.49 515.37V516.426L1818.74 531.674Z" fill="black"/>
<path d="M2247.18 531.674C2246.71 533.786 2245.42 534.841 2243.43 534.841C2242.61 534.841 2241.79 534.724 2241.2 534.606C2240.62 534.49 2239.68 534.255 2238.62 534.021C2237.57 533.786 2236.16 533.55 2234.52 533.435C2232.88 533.199 2230.54 533.081 2227.72 533.081C2221.74 533.081 2216.7 534.372 2212.48 536.953C2208.38 539.533 2205.45 543.756 2203.93 549.621L2186.11 618.944C2185.52 621.524 2184.12 622.813 2181.89 622.813H2162.55C2160.55 622.813 2159.62 621.757 2159.73 619.882V619.062L2185.99 516.544C2186.7 513.964 2188.22 512.672 2190.68 512.672H2209.2C2210.72 512.672 2211.55 513.259 2211.43 514.433C2211.43 514.784 2211.31 515.135 2211.19 515.722C2211.08 516.308 2210.96 517.013 2210.84 517.833C2210.84 518.889 2211.31 519.357 2212.48 519.357C2214.01 519.357 2215.77 518.889 2217.64 518.069C2219.52 517.246 2221.63 516.308 2224.09 515.135C2226.43 514.079 2229.25 513.141 2232.18 512.203C2235.23 511.381 2238.51 510.912 2242.26 510.912C2245.77 510.912 2248.12 511.381 2249.29 512.203C2250.46 513.023 2251.05 514.079 2250.93 515.37V516.426L2247.18 531.674Z" fill="black"/>
<path d="M1885.67 636.759C1882.74 648.371 1877.58 656.698 1870.31 661.977C1862.93 667.255 1853.9 669.835 1843.12 669.835C1835.73 669.835 1832.1 668.662 1832.22 666.2V665.613L1835.26 653.883C1835.62 652.594 1836.09 651.771 1836.79 651.302C1837.49 650.833 1838.08 650.716 1838.78 650.716C1839.6 650.716 1840.31 650.716 1840.77 650.833C1841.24 650.951 1841.95 650.951 1842.77 650.951C1847.57 650.951 1851.32 649.66 1853.78 647.08C1856.37 644.499 1858.24 640.394 1859.65 634.647L1889.77 516.53C1890.36 513.947 1891.88 512.658 1894.46 512.658H1913.45C1915.56 512.658 1916.61 513.596 1916.5 515.474V516.177L1885.67 636.759ZM1927.28 482.277C1924.94 491.076 1918.61 495.532 1908.64 495.532C1899.97 495.532 1895.75 492.132 1896.1 485.444C1896.34 480.05 1898.33 475.828 1902.08 473.012C1905.83 470.196 1910.4 468.671 1915.79 468.671C1924.12 468.671 1928.22 471.838 1927.98 478.29C1927.98 478.995 1927.87 479.697 1927.75 480.166C1927.52 480.871 1927.4 481.575 1927.28 482.277Z" fill="black"/>
<path d="M2339.19 619.055C2338.61 621.635 2337.09 622.924 2334.5 622.924H2315.51C2313.53 622.924 2312.58 621.986 2312.69 620.11V619.055L2329 555.479C2330.04 551.843 2330.64 548.44 2330.76 545.04C2330.99 539.762 2329.58 536.008 2326.53 533.779C2323.48 531.55 2319.28 530.494 2313.87 530.494C2311.31 530.494 2308.72 530.73 2306.02 531.081C2303.32 531.55 2300.98 532.254 2298.64 533.192C2296.29 534.13 2294.42 535.539 2292.66 537.179C2290.9 538.821 2289.73 540.817 2289.14 543.044L2269.57 619.055C2268.98 621.635 2267.57 622.924 2265.11 622.924H2246.12C2244.01 622.924 2242.96 621.986 2243.08 620.11V619.055L2269.33 516.535C2270.03 513.954 2271.68 512.665 2274.14 512.665H2292.42C2294.18 512.665 2295 513.37 2294.89 514.541C2294.89 514.777 2294.89 515.01 2294.77 515.128C2294.65 515.246 2294.65 515.481 2294.65 515.832C2294.65 516.537 2295.35 516.888 2296.76 516.888C2298.52 516.888 2300.28 516.535 2302.15 515.95C2304.03 515.363 2306.26 514.659 2308.72 513.954C2311.17 513.252 2313.99 512.548 2317.15 511.961C2320.2 511.374 2323.83 511.023 2327.94 511.023C2337.9 511.023 2345.64 513.016 2351.16 517.006C2356.66 520.993 2359.24 527.327 2358.9 535.89C2358.67 540.933 2357.72 546.68 2355.96 553.485L2339.19 619.055Z" fill="black"/>
<path d="M2473.52 568.265C2472.71 570.845 2471.07 572.134 2468.72 572.134H2401.22C2399.32 572.134 2398.05 573.072 2397.34 574.95C2396.64 576.826 2396.16 579.759 2396.04 583.746C2395.7 590.785 2397.8 596.297 2402.26 600.286C2406.71 604.273 2413.64 606.269 2423.25 606.269C2428.06 606.269 2432.38 605.798 2436.26 604.978C2440.12 604.158 2443.51 603.217 2446.33 602.28C2449.15 601.342 2451.37 600.519 2453.15 599.581C2454.9 598.761 2456.06 598.292 2456.77 598.292C2458.65 598.292 2459.48 598.995 2459.48 600.404V600.873L2455.94 612.836C2455.48 614.948 2453.96 616.826 2451.51 618.35C2449.04 619.875 2445.99 621.048 2442.24 622.104C2438.59 623.16 2434.39 623.862 2429.82 624.215C2425.13 624.684 2420.32 624.918 2415.15 624.918C2398.63 624.918 2386.66 621.517 2378.95 614.714C2371.32 607.909 2367.67 598.175 2368.27 585.507C2368.51 580.346 2369.31 574.832 2370.95 568.967C2373.54 559.233 2377.05 550.787 2381.51 543.513C2385.97 536.241 2391.12 530.261 2396.99 525.451C2402.86 520.642 2409.42 517.121 2416.44 514.659C2423.49 512.196 2430.86 511.023 2438.59 511.023C2452.66 511.023 2462.76 514.308 2468.97 520.757C2475.19 527.209 2477.98 535.89 2477.52 546.798C2477.4 549.263 2476.94 552.545 2476.11 556.886C2475.19 560.991 2474.35 564.862 2473.52 568.265ZM2447.51 554.774C2449.04 554.774 2450.1 554.07 2450.68 552.663C2451.25 551.256 2451.62 548.909 2451.74 545.86C2451.97 540.464 2450.56 536.241 2447.4 533.074C2444.23 530.025 2439.31 528.5 2432.5 528.5C2427.94 528.5 2423.83 529.438 2420.09 531.316C2416.32 533.192 2413.28 535.421 2410.71 538.001C2408.12 540.582 2406.25 543.28 2404.84 546.096C2403.43 548.909 2402.74 551.49 2402.63 553.601C2402.63 554.423 2403.32 554.892 2404.73 554.892H2447.51V554.774Z" fill="black"/>
<path d="M2598.96 514.527C2598.96 515.347 2598.24 516.989 2596.83 519.219L2520.19 644.023C2514.78 652.82 2509.28 659.387 2503.53 663.61C2497.8 667.832 2490.87 669.944 2482.55 669.944C2475.16 669.944 2471.54 668.773 2471.65 666.543V665.839L2474.7 653.64C2475.16 651.646 2476.34 650.708 2478.21 650.708C2478.93 650.708 2479.62 650.708 2480.45 650.826C2481.26 650.942 2482.44 650.942 2483.96 650.942C2486.78 650.942 2489.35 650.357 2491.59 649.066C2493.8 647.775 2496.02 645.43 2498.15 642.027L2502.95 634.287C2504.13 632.526 2504.94 631.237 2505.29 630.415C2505.66 629.595 2505.77 628.773 2505.89 628.07C2505.89 627.601 2505.89 627.015 2505.89 626.192C2505.89 625.372 2505.77 624.668 2505.66 623.963L2494.15 518.396V517.341C2494.27 515.934 2494.64 514.76 2495.21 513.94C2495.91 513.118 2497.09 512.649 2498.73 512.649H2519.12C2520.3 512.649 2520.99 512.885 2521.48 513.353C2521.83 513.822 2522.17 514.409 2522.29 515.229L2527.69 591.473C2527.69 593.349 2528.16 594.289 2528.85 594.289C2529.68 594.289 2530.6 593.349 2531.78 591.473L2575.05 515.229C2576.09 513.471 2577.73 512.649 2580.09 512.649H2596.03C2598.01 512.649 2599.08 513.236 2598.96 514.527Z" fill="black"/>
<path d="M2133.83 619.045C2133.24 621.626 2131.72 622.917 2129.14 622.917H2110.85C2109.1 622.917 2108.28 622.212 2108.39 620.806V619.75C2108.39 619.045 2107.92 618.694 2106.75 618.694C2104.99 618.694 2103.23 619.045 2101.36 619.632C2099.48 620.219 2097.37 620.921 2094.91 621.626C2092.45 622.33 2089.64 623.032 2086.47 623.619C2083.31 624.206 2079.56 624.559 2075.1 624.559C2070.53 624.559 2066.31 624.088 2062.44 623.268C2058.57 622.448 2055.17 621.039 2052.36 619.045C2049.55 617.17 2047.32 614.587 2045.91 611.538C2044.39 608.489 2043.8 604.853 2043.92 600.512C2044.04 597.696 2044.51 594.414 2045.21 590.778C2045.91 587.14 2046.85 583.035 2048.14 578.461L2064.08 516.41C2064.67 513.829 2066.19 512.541 2068.77 512.541H2088.11C2089.99 512.541 2090.81 513.361 2090.81 515.121V515.823L2073.81 582.215C2072.99 585.733 2072.4 588.667 2072.4 591.011C2072.17 595.821 2073.46 599.457 2076.16 601.686C2078.85 603.915 2083.66 605.086 2090.22 605.086C2095.73 605.086 2100.89 604.03 2105.46 602.037C2110.15 600.043 2112.96 596.641 2114.25 591.949L2133.59 516.41C2134.18 513.829 2135.59 512.541 2138.05 512.541H2157.39C2159.38 512.541 2160.32 513.478 2160.2 515.354V516.059L2133.83 619.045Z" fill="black"/>
<path d="M2032.19 567.442C2030.09 575.77 2027.04 583.395 2022.93 590.316C2018.83 597.352 2013.91 603.335 2008.05 608.496C2002.19 613.659 1995.5 617.646 1987.88 620.462C1980.27 623.275 1971.82 624.8 1962.45 624.8C1947.44 624.8 1936.31 621.164 1929.28 614.01C1922.24 606.853 1918.96 596.883 1919.55 584.333C1919.78 579.29 1920.6 573.894 1922.12 568.029C1924.23 559.702 1927.28 552.076 1931.38 545.156C1935.49 538.119 1940.41 532.136 1946.27 527.091C1952.13 522.049 1958.81 518.062 1966.43 515.246C1974.05 512.43 1982.49 511.023 1991.87 511.023C2006.87 511.023 2018.01 514.541 2025.04 521.697C2032.08 528.852 2035.36 538.704 2034.77 551.256C2034.54 556.299 2033.72 561.695 2032.19 567.442ZM2004.53 566.973C2006.05 560.991 2006.99 555.712 2007.11 551.138C2007.46 543.398 2005.94 537.884 2002.42 534.599C1998.9 531.198 1993.75 529.556 1986.83 529.556C1977.92 529.556 1970.42 532.605 1964.32 538.588C1958.23 544.569 1953.42 554.541 1949.79 568.616C1948.26 574.95 1947.33 580.228 1947.21 584.451C1946.86 592.192 1948.38 597.706 1951.78 601.106C1955.18 604.509 1960.45 606.269 1967.49 606.269C1976.28 606.269 1983.78 603.217 1989.88 597.237C1995.97 591.254 2000.9 581.166 2004.53 566.973Z" fill="black"/>
<path d="M1705.39 619.045C1704.8 621.626 1703.28 622.917 1700.7 622.917H1682.41C1680.65 622.917 1679.83 622.212 1679.95 620.806V619.75C1679.95 619.045 1679.48 618.694 1678.31 618.694C1676.55 618.694 1674.79 619.045 1672.91 619.632C1671.04 620.219 1668.93 620.921 1666.47 621.626C1664.01 622.33 1661.19 623.032 1658.03 623.619C1654.86 624.206 1651.11 624.559 1646.66 624.559C1642.09 624.559 1637.87 624.088 1634 623.268C1630.13 622.448 1626.73 621.039 1623.92 619.045C1621.1 617.17 1618.88 614.587 1617.47 611.538C1615.95 608.489 1615.36 604.853 1615.48 600.512C1615.59 597.696 1616.06 594.414 1616.77 590.778C1617.47 587.14 1618.41 583.035 1619.7 578.461L1635.64 516.41C1636.23 513.829 1637.75 512.541 1640.33 512.541H1659.67C1661.54 512.541 1662.37 513.361 1662.37 515.121V515.823L1645.37 582.215C1644.55 585.733 1643.96 588.667 1643.96 591.011C1643.73 595.821 1645.02 599.457 1647.71 601.686C1650.41 603.915 1655.21 605.086 1661.78 605.086C1667.29 605.086 1672.45 604.03 1677.02 602.037C1681.71 600.043 1684.52 596.641 1685.81 591.949L1705.15 516.41C1705.74 513.829 1707.14 512.541 1709.61 512.541H1728.95C1730.94 512.541 1731.88 513.478 1731.76 515.354V516.059L1705.39 619.045Z" fill="black"/>
<path d="M1603.76 567.442C1601.65 575.77 1598.6 583.395 1594.5 590.316C1590.4 597.352 1585.48 603.335 1579.61 608.496C1573.75 613.659 1567.07 617.646 1559.45 620.462C1551.83 623.275 1543.39 624.8 1534.02 624.8C1519.01 624.8 1507.88 621.164 1500.84 614.01C1493.81 606.853 1490.53 596.883 1491.12 584.333C1491.35 579.29 1492.17 573.894 1493.69 568.029C1495.8 559.702 1498.85 552.076 1502.95 545.156C1507.06 538.119 1511.98 532.136 1517.84 527.091C1523.7 522.049 1530.38 518.062 1538 515.246C1545.62 512.43 1554.06 511.023 1563.44 511.023C1578.44 511.023 1589.58 514.541 1596.61 521.697C1603.64 528.852 1606.93 538.704 1606.34 551.256C1606.22 556.299 1605.29 561.695 1603.76 567.442ZM1576.1 566.973C1577.62 560.991 1578.56 555.712 1578.68 551.138C1579.03 543.398 1577.51 537.884 1573.99 534.599C1570.47 531.198 1565.32 529.556 1558.4 529.556C1549.49 529.556 1541.99 532.605 1535.89 538.588C1529.8 544.569 1524.99 554.541 1521.36 568.616C1519.83 574.95 1518.9 580.228 1518.78 584.451C1518.43 592.192 1519.95 597.706 1523.35 601.106C1526.75 604.509 1532.02 606.269 1539.06 606.269C1547.85 606.269 1555.35 603.217 1561.45 597.237C1567.66 591.254 1572.47 581.166 1576.1 566.973Z" fill="black"/>
</svg>
