<svg width="3173" height="726" viewBox="0 0 3173 726" fill="none" xmlns="http://www.w3.org/2000/svg">
<path d="M3172.61 446.698H2743.32V432.76H3172.61V446.698ZM2957.78 364.929L2998.1 326.275L3014.83 343L2971.34 380.168C2968.01 385.131 2965.21 390.426 2962.98 395.968H2930.83C2935.73 382.731 2945.32 371.754 2957.78 365.119V364.929ZM2822.86 118.879L2789.41 128.171C2781.96 130.92 2774.75 134.276 2767.85 138.206C2761.35 142.666 2753.91 150.1 2753.35 154.006L2781.97 160.696C2786.21 155.84 2790.74 151.246 2795.54 146.94L2802.23 143.967L2825.83 119.808C2825.38 119.528 2824.87 119.379 2824.34 119.379C2823.82 119.379 2823.3 119.528 2822.86 119.808L2822.86 118.879ZM3017.06 197.489C2999.17 178.309 2982.82 157.74 2968.18 135.977C2979.17 108.71 2983.38 79.1845 2980.45 49.9331C2974.7 39.3617 2967.98 29.3456 2960.38 20.0131C2956.29 16.1131 2943.65 1.42913 2937.52 1.42913C2936.39 1.35931 2935.27 1.68809 2934.36 2.35813L2936.22 18.5261C2919.12 29.4901 2896.64 44.5401 2876.38 59.4101V76.8791C2879.44 79.6897 2883.04 81.8406 2886.97 83.1981C2899.78 79.9041 2912.83 77.6666 2926 76.5081L2901.84 113.676L2874.15 133.561L2839.4 122.596C2838.41 122.287 2837.35 122.281 2836.35 122.58C2835.36 122.878 2834.48 123.466 2833.82 124.269L2808.36 151.959C2807.54 152.659 2806.91 153.552 2806.52 154.558C2806.13 155.563 2806 156.65 2806.13 157.72V198.976C2805.68 210.241 2809.09 221.322 2815.8 230.383L2832.52 206.223C2829.48 200.699 2827.11 194.835 2825.46 188.754V161.807L2841.81 150.099L2884.93 180.391C2891.58 192.785 2899.35 204.542 2908.16 215.514C2927.6 232.436 2948.63 247.435 2970.97 260.301C2973.11 271.761 2976.03 283.061 2979.7 294.124L3032.48 348.203L3001.26 387.23C2995.5 390.402 2990.6 394.943 2987.01 400.452C2983.41 405.961 2981.22 412.27 2980.63 418.823H3016.69L3020.59 398.195L3063.7 350.435C3065.74 347.647 3065.74 346.346 3063.7 342.444L3051.44 301.188C3062.66 288.51 3069.21 272.381 3070.02 255.47C3070.02 217.187 3028.39 207.524 3015.2 196.559L3017.06 197.489ZM3084.7 261.232C3082.33 251.847 3079.1 242.701 3075.04 233.914C3075.04 233.914 3076.71 232.241 3080.24 233.914L3106.26 251.383C3117.59 268.109 3124.84 336.683 3124.84 361.214C3112.12 355.513 3100.29 348.002 3089.72 338.914L3084.7 261.232Z" fill="black"/>
<path d="M2596.51 614.51H2583.13V723.783H2604.5V641.456C2614.03 635.138 2625.05 631.423 2636.46 630.677C2646.87 630.677 2652.82 634.394 2652.82 647.96V723.782H2674.19V642.948C2674.19 619.161 2661.36 612.842 2646.12 612.842C2630.93 613.281 2616.31 618.701 2604.5 628.266C2604.5 616.93 2601.71 614.514 2596.51 614.514M2503.59 708.92C2485 708.92 2473.11 695.725 2473.11 669.52C2473.11 643.315 2485.19 629.007 2503.59 629.007C2521.99 629.007 2534.06 643.131 2534.06 669.52C2534.06 695.909 2522.17 708.92 2503.59 708.92ZM2503.59 724.902C2510.8 725.09 2517.97 723.748 2524.63 720.964C2531.29 718.18 2537.28 714.017 2542.21 708.751C2547.15 703.484 2550.91 697.232 2553.25 690.406C2555.59 683.581 2556.46 676.337 2555.81 669.15C2556.42 661.922 2555.52 654.645 2553.17 647.78C2550.83 640.916 2547.08 634.613 2542.17 629.272C2537.26 623.93 2531.3 619.666 2524.66 616.749C2518.02 613.832 2510.84 612.326 2503.59 612.326C2496.33 612.326 2489.16 613.832 2482.51 616.749C2475.87 619.666 2469.91 623.93 2465 629.272C2460.09 634.613 2456.34 640.916 2454 647.78C2451.65 654.645 2450.75 661.922 2451.37 669.15C2450.71 676.337 2451.58 683.581 2453.92 690.406C2456.26 697.232 2460.03 703.484 2464.96 708.751C2469.89 714.017 2475.88 718.18 2482.54 720.964C2489.2 723.748 2496.37 725.09 2503.59 724.902ZM2412.15 602.062C2414.58 602.026 2416.94 601.271 2418.94 599.892C2420.93 598.514 2422.48 596.575 2423.37 594.319C2424.27 592.064 2424.47 589.594 2423.96 587.222C2423.45 584.85 2422.25 582.682 2420.51 580.993C2418.77 579.303 2416.57 578.168 2414.18 577.731C2411.79 577.293 2409.33 577.574 2407.1 578.536C2404.88 579.498 2402.98 581.099 2401.67 583.137C2400.35 585.174 2399.67 587.556 2399.7 589.982C2399.8 593.22 2401.15 596.292 2403.48 598.548C2405.8 600.803 2408.91 602.064 2412.15 602.062ZM2422.56 723.415V630.492C2422.56 616.74 2421.45 614.138 2413.27 614.138H2401.37V723.411L2422.56 723.415ZM2309.2 629.195H2322.21V696.84C2322.21 717.282 2333.17 724.902 2351.76 724.902C2357.58 724.983 2363.39 724.296 2369.04 722.858V709.102H2359.19C2348.41 709.102 2343.58 705.757 2343.58 694.235V629.563H2367.92V614.51H2343.77V584.962H2322.4V614.51H2309.39L2309.2 629.195ZM2240.62 708.548C2222.04 708.548 2210.15 695.353 2210.15 669.148C2210.15 642.943 2222.23 628.635 2240.62 628.635C2259.02 628.635 2271.1 642.759 2271.1 669.148C2271.1 695.537 2259.21 708.548 2240.62 708.548ZM2240.62 724.53C2247.83 724.721 2255 723.379 2261.65 720.594C2268.3 717.808 2274.28 713.643 2279.2 708.372C2284.12 703.102 2287.86 696.847 2290.18 690.021C2292.5 683.196 2293.35 675.955 2292.66 668.778C2293.08 661.672 2292.05 654.553 2289.62 647.861C2287.19 641.169 2283.42 635.043 2278.54 629.862C2273.66 624.68 2267.77 620.551 2261.23 617.729C2254.7 614.907 2247.65 613.452 2240.53 613.452C2233.41 613.452 2226.37 614.907 2219.83 617.729C2213.3 620.551 2207.41 624.68 2202.52 629.862C2197.64 635.043 2193.87 641.169 2191.44 647.861C2189.01 654.553 2187.98 661.672 2188.4 668.778C2187.75 675.965 2188.62 683.209 2190.96 690.034C2193.3 696.86 2197.06 703.111 2202 708.378C2206.93 713.645 2212.92 717.807 2219.58 720.591C2226.24 723.375 2233.41 724.718 2240.62 724.53ZM2020.22 723.415H2038.81V604.475L2080.25 723.783H2094.37L2136.18 604.475V723.783H2158.67V577.714H2127.82L2089.17 689.214L2050.51 577.714H2019.1L2020.22 723.415ZM1854.08 614.138H1840.7V723.411H1861.89V641.456C1871.43 635.162 1882.44 631.448 1893.85 630.677C1904.26 630.677 1910.39 634.394 1910.39 647.96V723.782H1931.58V642.948C1931.58 619.161 1918.94 612.842 1903.7 612.842C1888.46 613.322 1873.79 618.735 1861.89 628.267C1861.89 616.931 1859.29 614.515 1854.09 614.515M1794.43 602.064C1797.67 602.066 1800.78 600.805 1803.11 598.55C1805.43 596.294 1806.79 593.222 1806.88 589.984C1806.83 586.697 1805.51 583.558 1803.18 581.234C1800.86 578.909 1797.72 577.582 1794.43 577.533C1791.13 577.58 1787.97 578.901 1785.61 581.221C1783.26 583.541 1781.89 586.68 1781.79 589.984C1781.89 593.254 1783.27 596.355 1785.64 598.615C1788 600.876 1791.16 602.115 1794.43 602.064ZM1804.84 723.417V630.492C1804.84 616.74 1803.72 614.138 1795.36 614.138H1783.47V723.411L1804.84 723.417ZM1657.28 627.148C1672.14 627.148 1681.44 635.325 1681.81 658.926H1629.59C1632 635.696 1642.97 627.148 1657.28 627.148ZM1702.62 672.864V665.43C1702.62 629.377 1685.9 612.466 1657.09 612.466C1650.07 612.591 1643.14 614.162 1636.75 617.084C1630.36 620.006 1624.64 624.214 1619.95 629.446C1615.25 634.679 1611.69 640.822 1609.48 647.494C1607.27 654.165 1606.46 661.22 1607.1 668.218C1606.12 675.451 1606.76 682.811 1608.98 689.765C1611.19 696.72 1614.92 703.096 1619.9 708.431C1624.88 713.767 1630.98 717.929 1637.77 720.616C1644.56 723.303 1651.85 724.449 1659.14 723.969C1673.15 724.698 1687.05 721.062 1698.91 713.562V698.695H1691.84C1683.33 705.528 1672.65 709.088 1661.74 708.73C1641.3 708.73 1629.59 698.881 1628.47 673.049L1702.62 672.864ZM1587.4 631.794H1592.23V613.209C1590.26 612.942 1588.26 612.942 1586.29 613.209C1580.23 613.442 1574.3 614.992 1568.91 617.752C1563.52 620.513 1558.8 624.417 1555.07 629.191C1555.07 616.554 1552.28 614.138 1547.08 614.138H1533.7V723.411H1555.07V644.058C1563.93 636.058 1575.47 631.68 1587.41 631.793M1444.31 708.548C1434.27 708.548 1427.4 705.203 1427.4 691.079V614.51H1406.02V695.91C1405.52 699.928 1405.95 704.008 1407.29 707.831C1408.62 711.653 1410.83 715.114 1413.73 717.941C1416.63 720.768 1420.14 722.884 1423.99 724.124C1427.85 725.364 1431.94 725.694 1435.94 725.087C1450.37 724.786 1464.34 719.977 1475.9 711.335C1475.9 722.114 1478.69 723.786 1483.7 723.786H1497.08V614.51H1475.9V698.137C1466.69 704.22 1456.06 707.807 1445.05 708.548M1320.35 629.567H1333.54V696.841C1333.54 717.283 1344.51 724.903 1363.09 724.903C1368.92 724.971 1374.73 724.284 1380.37 722.859V709.102H1370.53C1359.75 709.102 1354.92 705.757 1354.92 694.235V629.563H1379.07V614.51H1354.92V584.962H1332.8V614.51H1319.61L1320.35 629.567ZM1239.88 708.548C1229.85 708.548 1222.97 705.203 1222.97 691.079V614.51H1201.79V695.91C1201.25 699.918 1201.65 703.995 1202.96 707.82C1204.28 711.644 1206.46 715.11 1209.35 717.942C1212.24 720.774 1215.74 722.894 1219.59 724.134C1223.44 725.375 1227.52 725.701 1231.52 725.087C1245.93 724.713 1259.88 719.911 1271.48 711.335C1271.48 722.114 1274.08 723.786 1279.1 723.786H1292.48V614.51H1271.48V698.137C1262.28 704.251 1251.64 707.841 1240.63 708.548M1117.6 723.783V660.969H1168.71V644.058H1116.86V595.183H1184.32V577.714H1094.19V723.783H1117.6ZM966.886 627.518C981.939 627.518 991.045 635.695 991.417 659.296H939.382C941.612 636.066 952.577 627.518 966.882 627.518M1011.3 673.234V665.8C1011.3 629.747 994.387 612.836 965.582 612.836C958.556 612.961 951.63 614.532 945.239 617.454C938.847 620.376 933.127 624.584 928.435 629.816C923.744 635.049 920.182 641.192 917.972 647.864C915.762 654.535 914.952 661.59 915.592 668.588C914.613 675.821 915.253 683.181 917.466 690.135C919.68 697.09 923.412 703.466 928.392 708.801C933.371 714.137 939.475 718.299 946.261 720.986C953.046 723.673 960.345 724.819 967.627 724.339C981.909 724.965 996.023 721.063 1007.95 713.189V698.323H1001.08C992.475 705.126 981.749 708.68 970.786 708.359C950.344 708.359 938.636 698.509 937.521 672.678L1011.3 673.234ZM818.955 591.834C818.955 579.569 817.468 577.71 809.291 577.71H797.587V723.783H818.958V641.456C828.491 635.139 839.51 631.423 850.922 630.677C861.329 630.677 867.462 634.394 867.462 647.96V723.782H888.648V642.948C888.648 619.161 876.011 612.842 860.772 612.842C845.519 613.254 830.825 618.674 818.958 628.266L818.955 591.834ZM730.869 723.783V594.811H772.869V577.711H666.199V594.811H708.199V723.783H730.869Z" fill="black"/>
<path d="M1969.67 245.435C1969.67 219.235 1961.31 198.604 1938.45 198.604C1915.59 198.604 1906.3 219.232 1906.3 245.435V419.008H1933.25V446.698H1786.43V419.008H1813.75V180.021H1786.43V153.259H1902.03V198.046H1903.33C1909.8 182.944 1920.6 170.091 1934.35 161.099C1948.1 152.107 1964.2 147.375 1980.64 147.498C1998.76 146.714 2016.56 152.451 2030.81 163.669C2045.06 174.886 2054.82 190.842 2058.32 208.639C2061.15 224.274 2062.52 240.139 2062.4 256.028V419.008H2097.53V446.698H1969.67V245.435ZM1377.03 245.435C1377.03 219.235 1368.67 198.604 1345.81 198.604C1322.95 198.604 1313.66 219.232 1313.66 245.435V419.008H1340.61V446.698H1193.79V419.008H1221.11V180.021H1193.79V153.259H1308.64V198.046H1309.94C1316.42 182.945 1327.21 170.092 1340.97 161.099C1354.72 152.107 1370.82 147.375 1387.25 147.498C1405.37 146.713 1423.17 152.451 1437.43 163.668C1451.68 174.886 1461.44 190.841 1464.93 208.639C1467.77 224.274 1469.14 240.139 1469.02 256.028V419.008H1504.14V446.698H1377.03V245.435ZM2221.85 180.021V397.637C2221.56 400.15 2221.83 402.697 2222.66 405.088C2223.49 407.478 2224.85 409.65 2226.64 411.439C2228.43 413.228 2230.6 414.588 2232.99 415.416C2235.38 416.245 2237.93 416.52 2240.44 416.221C2246.32 416.103 2252.14 415.101 2257.72 413.248V440.009C2240.07 448.423 2220.56 452.197 2201.04 450.974C2155.32 450.974 2128.56 428.487 2128.56 381.098V180.021H2097.34V160.321C2131.91 132.631 2171.68 101.038 2204.57 74.2781H2221.67V153.26H2266.46V180.021H2221.85ZM390.6 0.871094C390.6 0.871094 461.4 71.4901 493.926 108.1V135.6C452.37 97.9623 398.35 77.0428 342.282 76.8751C210.151 76.8751 127.082 176.484 127.082 299.881C127.082 423.278 205.692 522.888 342.282 522.888C370.86 523.024 399.165 517.325 425.463 506.141C451.762 494.956 475.501 478.522 495.227 457.844V484.233C453.971 539.985 378.334 577.152 284.3 577.152C117.045 577.152 0.15332 454.87 0.15332 299.509C0.590078 262.668 8.29211 226.274 22.8181 192.414C37.3441 158.555 58.4085 127.894 84.8045 102.189C111.2 76.4837 142.409 56.2398 176.642 42.6168C210.875 28.9939 247.46 22.2597 284.3 22.8001C320.541 22.8117 356.506 29.0993 390.6 41.3841V0.871094ZM1743.88 368.46C1735.84 377.572 1725.85 384.758 1714.65 389.487C1703.46 394.216 1691.34 396.366 1679.21 395.778C1652.44 395.778 1611.19 380.911 1609.33 312.708H1766.18V291.708C1766.18 209.008 1732.35 147.497 1644.08 147.497C1555.8 147.497 1510.09 215.697 1510.09 300.442C1510.09 385.187 1555.25 452.086 1644.08 452.086C1667.84 453.368 1691.44 447.457 1711.8 435.125C1732.15 422.793 1748.32 404.612 1758.18 382.954L1743.88 368.46ZM1609.33 284.089C1609.33 206.78 1615.46 177.789 1641.85 177.789C1668.24 177.789 1674 206.036 1674.93 284.089H1609.33ZM314.22 299.142C314.22 209.568 322.583 169.055 352.874 169.055C383.165 169.055 391.528 208.639 391.528 299.142C391.528 389.645 383.163 429.229 352.875 429.229C322.587 429.229 314.22 389.645 314.22 299.142ZM205.321 299.142C205.321 387.787 259.772 459.892 352.877 459.892C445.982 459.892 500.433 387.787 500.433 299.142C500.433 210.497 445.98 138.206 352.875 138.206C259.77 138.206 205.319 211.798 205.319 300.071M708.384 245.434C708.384 219.234 700.021 198.603 677.163 198.603C654.305 198.603 645.013 219.231 645.013 245.434V419.008H671.774V446.698H525.147V419.008H552.279V180.021H525.147V153.259H640.739V198.046H642.039C648.517 182.945 659.308 170.092 673.062 161.099C686.815 152.107 702.917 147.375 719.348 147.498C737.46 146.752 755.242 152.504 769.486 163.715C783.73 174.926 793.498 190.859 797.028 208.639C799.806 224.279 801.112 240.145 800.928 256.028V419.008H836.237V446.698H708.384V245.434ZM1040.66 75.5781C1040.66 101.41 1063.89 118.507 1096.42 118.507C1128.94 118.507 1153.1 101.407 1153.1 75.5781C1153.1 49.7491 1129.87 32.4631 1096.42 32.4631C1062.96 32.4631 1040.66 49.5631 1040.66 75.5781ZM960.563 180.021V397.637C960.264 400.15 960.539 402.698 961.368 405.089C962.196 407.48 963.556 409.652 965.346 411.441C967.136 413.231 969.308 414.59 971.699 415.418C974.09 416.246 976.639 416.521 979.151 416.221C984.972 416.129 990.741 415.126 996.251 413.248V440.009C978.894 448.322 959.712 452.094 940.499 450.973C894.783 450.973 867.836 428.486 867.836 381.098V180.021H836.241V160.321C870.807 132.631 910.577 101.038 943.284 74.2781H960.563V153.26H996.43V180.021H960.563ZM2674.36 419.01H2710.42V446.7H2581.64V71.4901H2549.49V44.5431H2674.37L2674.36 419.01ZM2426.46 301.372C2423.69 299.077 2420.48 297.354 2417.04 296.301C2413.6 295.249 2409.98 294.888 2406.39 295.239C2378.7 295.239 2372.57 322.371 2372.57 350.991C2372.57 379.611 2380.93 400.982 2404.53 400.982C2408.6 401.181 2412.66 400.505 2416.45 398.998C2420.23 397.491 2423.65 395.188 2426.46 392.247L2426.46 301.372ZM2430.55 411.572H2429.25C2421.23 424.208 2410.09 434.57 2396.91 441.664C2383.73 448.759 2368.95 452.347 2353.99 452.085C2306.23 452.085 2276.31 411.201 2276.31 362.325C2276.31 303.6 2318.12 266.246 2384.84 266.246C2398.97 265.743 2413.08 267.821 2426.47 272.379V253.797C2427.14 246.526 2426.22 239.195 2423.76 232.319C2421.29 225.444 2417.36 219.191 2412.22 214.001C2407.08 208.811 2400.87 204.809 2394.02 202.277C2387.17 199.745 2379.85 198.745 2372.57 199.346C2359.46 199.483 2346.57 202.659 2334.89 208.624C2323.22 214.59 2313.09 223.183 2305.3 233.726L2289.13 213.841C2301.29 193.898 2318.31 177.356 2338.58 165.756C2358.86 154.156 2381.74 147.875 2405.09 147.497C2476.27 147.497 2518.46 189.682 2518.46 253.797V419.008H2548.38V446.698H2429.81L2430.55 411.572ZM1023.56 446.698V419.008H1050.32V180.021H1023.56V153.259H1143.06V419.008H1170.38V446.698H1023.56Z" fill="black"/>
</svg>
