<svg width="548" height="104" viewBox="0 0 548 104" fill="none" xmlns="http://www.w3.org/2000/svg">
<path d="M362.227 0.991292C362.147 1.07147 360.744 1.27192 359.1 1.43227C357.496 1.55254 355.332 1.83317 354.289 2.03361C352.205 2.43451 325.224 2.23406 319.371 1.79308C314.32 1.43227 307.184 1.39219 304.899 1.75299C301.01 2.35433 296.561 4.39889 294.316 6.6038C292.512 8.32764 290.868 11.5749 290.307 14.341C289.785 16.8667 290.106 21.2364 290.908 23.7219C291.589 25.7264 291.79 27.4102 291.87 31.6997C291.95 36.0695 292.151 37.6329 292.872 39.8379C293.875 42.8045 295.398 44.9292 296.52 44.9292C297.964 44.9292 299.567 42.6842 300.088 39.7978C301.01 35.2276 301.933 34.506 303.336 37.3122C303.777 38.1942 304.298 38.9158 304.498 38.9158C305.581 38.9158 306.823 35.9893 307.024 32.9425C307.184 30.7777 307.745 30.497 308.668 32.1006C309.59 33.6641 310.191 33.624 311.033 31.9803C311.955 30.1763 312.195 28.8534 312.195 25.6462C312.195 22.5193 312.596 22.1585 315.242 22.84C317.247 23.3611 320.775 23.0805 322.699 22.3188C324.182 21.6774 324.703 20.8756 323.621 20.8756C322.739 20.8756 322.498 20.1941 322.979 19.272C323.3 18.6707 323.821 18.4702 325.064 18.4702C326.628 18.4702 329.354 17.7486 329.795 17.2275C329.915 17.1072 330.436 16.7464 330.917 16.5059C332.08 15.9045 331.839 15.5838 330.115 15.3834C328.311 15.223 326.988 14.4613 326.988 13.6194C326.988 12.6172 328.432 11.9357 329.714 12.2564C331.639 12.7375 332.24 12.8176 336.129 13.0582C345.55 13.6194 351.323 13.2586 355.211 11.7753C357.577 10.8934 359.461 9.93121 359.461 9.57041C359.461 9.36996 359.661 9.24969 359.902 9.24969C361.064 9.24969 363.309 5.80201 364.111 2.71513L364.592 0.830934H363.51C362.908 0.830934 362.307 0.911113 362.227 0.991292ZM314.681 7.76639C316.124 7.7263 316.485 8.12719 315.844 9.08934C315.483 9.65059 313.117 10.4524 311.915 10.4524C311.394 10.4524 310.953 10.6127 310.953 10.8533C310.953 11.4546 309.349 12.1762 307.545 12.3767C306.663 12.4568 305.581 12.8577 305.14 13.2586C303.616 14.5816 302.694 14.8622 301.371 14.4212C300.209 14.0203 298.886 12.4969 299.607 12.4168C299.768 12.4168 300.65 12.3366 301.492 12.2965C302.774 12.1762 303.336 11.8555 304.498 10.4925C305.821 9.00916 306.062 8.88889 307.385 9.08934C308.587 9.28978 309.028 9.16952 309.95 8.24746C310.872 7.44567 311.354 7.24523 312.155 7.48576C312.717 7.64612 313.839 7.76639 314.681 7.76639ZM297.643 20.7553C298.124 20.8756 298.525 21.076 298.565 21.2364C298.565 21.3567 298.645 22.4391 298.765 23.6017C298.886 25.4458 298.806 25.7264 298.204 25.6061C297.843 25.526 297.483 25.0449 297.402 24.4836C297.322 23.9224 296.841 23.0805 296.28 22.5594C295.117 21.4769 294.917 19.8333 296.039 20.2743C296.4 20.4346 297.122 20.6752 297.643 20.7553Z" fill="#FFE90A"/>
<path d="M284.093 13.6593C282.65 14.5413 281.247 15.2629 281.006 15.2629C280.725 15.2629 280.485 15.4232 280.485 15.5836C280.485 15.7439 279.202 16.6259 277.639 17.4678C274.953 18.9511 272.547 20.3141 270.663 21.4366C270.222 21.6772 268.819 22.519 267.576 23.2406C266.293 23.9623 265.251 24.6438 265.251 24.7239C265.251 24.9244 266.173 26.6081 266.454 26.8888C266.574 27.009 267.055 27.8108 267.496 28.6928C270.302 33.9445 270.543 34.2251 271.505 33.3432C271.705 33.1427 272.788 32.5013 273.87 31.8999C274.993 31.2986 276.797 30.2563 277.879 29.6148C279.002 28.9734 280.645 28.0915 281.607 27.6505C282.529 27.2095 283.291 26.6883 283.291 26.4879C283.291 26.2473 283.411 26.1271 283.612 26.1672C283.772 26.2073 284.574 25.8865 285.416 25.4856C286.939 24.7239 286.939 24.6839 286.699 22.8798C286.138 18.7907 286.097 16.1849 286.619 14.1404C286.939 13.0179 287.06 12.0557 286.939 12.0557C286.819 12.0958 285.536 12.8174 284.093 13.6593Z" fill="#FFE90A"/>
<path d="M29.6058 25.1248C23.3118 26.6482 16.7371 29.7351 13.089 32.9823C12.3273 33.6237 11.2449 34.5859 10.6836 35.067C9.12013 36.3899 5.91299 40.8799 4.46977 43.7263C2.94638 46.733 1.14236 52.3856 0.781552 55.2319C0.460837 57.958 0.460837 64.8533 0.781552 66.7776C1.22253 69.1429 3.18691 72.9514 5.03102 74.8757C7.03549 77.0004 9.6012 78.4837 13.1291 79.6062C15.8952 80.4481 16.4966 80.4882 34.3363 80.5283L52.7373 80.5684L53.2184 78.2833C53.8197 75.2365 53.8197 75.2766 54.1004 74.595C54.2607 74.114 55.1828 70.1451 55.8242 67.1785C55.8643 66.938 56.1048 65.9758 56.3855 64.9736C56.6661 63.9714 56.9467 62.7286 57.067 62.1674C57.1472 61.6061 57.7485 59.1607 58.3498 56.7553C58.9913 54.3098 59.4322 52.2653 59.312 52.145C59.2318 52.0248 54.1004 51.9446 47.9266 51.9045H36.7417L36.2606 53.5081C36.0201 54.4301 35.7795 55.3121 35.6994 55.5526C35.6593 55.7531 34.6971 59.8021 33.4944 64.4925L31.3697 73.0316L27.8018 72.9514C21.9086 72.8311 21.8285 72.4302 24.9554 60.3633C25.9577 56.3945 26.9599 52.5058 27.1202 51.7441C27.2806 50.9824 28.0022 48.096 28.6837 45.3298C29.3652 42.5637 30.0468 39.9579 30.1269 39.557C31.3296 34.3454 33.8553 32.4612 39.1871 32.7017C42.0736 32.822 44.3987 33.5837 47.205 35.3075C48.2874 35.9489 49.2095 36.3498 49.2896 36.1895C49.4099 36.0291 50.2919 34.3454 51.3342 32.4211L53.2184 28.9333L51.695 27.9712C49.3297 26.5279 47.2451 25.7662 42.2339 24.5235C39.6281 23.8419 33.6147 24.1226 29.6058 25.1248Z" fill="#FFE90A"/>
<path d="M96.8352 24.2829C96.755 24.323 95.9532 24.4833 95.0713 24.6036C90.7015 25.245 86.2917 26.608 83.2449 28.372C82.6837 28.6927 81.922 29.0535 81.5611 29.1738C81.1603 29.294 80.8395 29.5346 80.8395 29.735C80.8395 29.9355 80.599 30.0958 80.3585 30.0958C79.677 30.0958 75.2671 34.2651 73.5433 36.5101C71.178 39.6371 68.6123 45.3298 67.7303 49.3387C66.4074 55.6728 66.5677 63.4501 68.1713 67.1785C70.2159 71.909 70.6168 72.4703 75.5878 77.0003C76.8707 78.1629 82.6837 80.5683 85.4097 81.0494C91.3429 82.0516 101.365 80.6084 106.858 77.9224C108.541 77.1206 109.984 76.3589 110.105 76.1986C110.225 76.0783 110.947 75.517 111.708 74.9959C113.392 73.7932 116.479 70.546 117.922 68.4613C118.924 66.978 120.969 63.1695 121.209 62.3677C121.25 62.1272 121.851 60.4435 122.492 58.5593C123.174 56.6751 123.775 54.5904 123.895 53.949C124.016 53.2675 124.216 52.2251 124.377 51.6238C125.459 46.6126 125.058 40.519 123.294 36.3097C123.014 35.6281 122.813 34.9867 122.853 34.8665C122.893 34.7061 122.532 34.2651 122.132 33.9043C121.691 33.5034 121.33 33.0223 121.33 32.8219C121.33 32.0602 117.201 28.5323 114.835 27.2896C111.227 25.3653 105.976 24.1626 101.045 24.1626C98.7996 24.1225 96.8753 24.2027 96.8352 24.2829ZM104.011 33.1025C104.933 34.1849 105.174 36.0691 104.532 37.2317C104.332 37.5925 104.051 38.4344 103.931 39.1159C103.45 41.8821 102.408 46.2919 102.087 47.1739C101.886 47.695 101.806 48.136 101.927 48.136C102.007 48.136 101.927 48.4567 101.726 48.8175C101.526 49.2184 101.245 50.2207 101.125 51.0625C100.884 52.5859 100.002 56.194 98.2784 62.9691C97.7572 65.0537 97.196 67.4992 97.0356 68.3811C96.755 70.3054 95.5523 72.3901 94.2294 73.272C91.7438 74.8756 87.2939 72.9914 87.2538 70.2653C87.2538 69.7442 87.9754 66.2965 88.8975 62.6484C89.7795 58.9601 90.6213 55.6327 90.7015 55.1917C90.8218 54.4301 93.7082 42.6037 94.6303 38.9155C94.951 37.7128 95.3118 36.2295 95.4321 35.6281C95.7528 34.1849 97.6771 32.1404 99.1203 31.7395C100.804 31.2985 102.929 31.8998 104.011 33.1025Z" fill="#FFE90A"/>
<path d="M162.181 24.2428C162.101 24.323 161.179 24.4834 160.096 24.6036C159.054 24.7239 158.052 24.9645 157.851 25.0847C157.611 25.205 156.689 25.4054 155.767 25.5257C151.958 26.087 144.943 29.7752 141.655 32.9823C139.531 35.1071 137.205 38.234 136.043 40.5592C134.6 43.5659 132.956 48.0158 133.236 48.2564C133.357 48.3766 133.277 48.7374 133.116 49.0181C132.916 49.2987 132.755 49.6996 132.715 49.9401C132.675 50.1406 132.475 51.1428 132.314 52.145C131.873 54.2698 131.833 61.3656 132.234 63.37C132.715 66.056 133.758 68.7821 135.081 70.8267C136.564 73.232 139.17 76.1986 139.771 76.1986C139.971 76.1986 140.172 76.359 140.172 76.5995C140.172 76.8 140.412 77.0004 140.733 77.0004C141.054 77.0004 141.375 77.281 141.535 77.6017C141.655 77.9225 141.896 78.163 142.056 78.1229C142.216 78.0828 143.179 78.4837 144.181 79.0049C147.468 80.8089 150.635 81.3701 156.649 81.2098C159.655 81.1697 162.301 81.0093 162.542 80.8891C162.742 80.7287 163.664 80.5283 164.586 80.408C166.31 80.2076 172.444 78.0026 173.406 77.281C173.967 76.8 175.29 75.9982 176.252 75.5171C176.934 75.1964 180.823 71.3478 182.065 69.7442C184.912 66.1362 188.159 58.3589 189.281 52.5058C189.923 49.2987 190.163 42.4835 189.682 40.92C189.602 40.5993 189.402 39.7173 189.281 38.9957C188.88 36.6705 186.635 32.7819 184.471 30.6972C180.261 26.6081 174.689 24.5235 166.992 24.2428C164.466 24.1627 162.301 24.1226 162.181 24.2428ZM167.954 32.1404C169.477 32.822 169.998 34.1449 169.638 36.3899C169.237 39.1962 169.157 39.4367 168.916 40.1182C168.635 40.9601 167.473 45.6906 167.272 46.9334C167.192 47.4947 166.751 49.2987 166.27 50.9423C165.829 52.586 165.348 54.5504 165.228 55.3121C165.108 56.0337 164.667 57.9179 164.226 59.5215C163.785 61.0849 163.384 62.8088 163.263 63.37C163.183 63.9313 162.702 65.9358 162.221 67.9001C161.299 71.5483 159.776 73.7532 158.132 73.8334C157.731 73.8734 157.09 73.9135 156.729 73.9135C155.526 73.9536 153.442 72.6307 152.8 71.3879C152.119 70.065 152.038 70.4658 155.486 56.5548C156.568 52.0248 157.571 47.9757 157.651 47.5347C158.012 45.7307 159.615 39.3164 160.337 36.7106C161.139 34.0246 162.141 32.4612 163.424 31.9801C164.466 31.5792 166.952 31.6995 167.954 32.1404Z" fill="#FFE90A"/>
<path d="M205.157 25.686C204.916 25.8464 202.351 35.5079 201.709 38.5547C201.629 38.9155 200.747 42.5236 199.705 46.5726C198.662 50.6216 197.74 54.3499 197.66 54.7909C197.58 55.272 196.658 58.88 195.656 62.8088C193.771 70.1852 193.611 70.8667 193.25 72.5906C193.13 73.1518 192.689 74.8356 192.248 76.399C191.847 77.9224 191.486 79.526 191.486 79.8868C191.486 80.5683 192.489 80.6084 209.847 80.4481C219.91 80.3679 228.569 80.2075 229.05 80.0873C234.903 78.604 239.594 76.7198 241.798 74.9558C244.925 72.4302 249.616 66.6974 249.616 65.3745C249.616 65.174 249.776 64.9736 249.937 64.9736C250.177 64.9736 251.059 63.3299 251.38 62.1673C251.42 62.0471 251.821 60.9647 252.302 59.762C253.064 57.7174 254.507 52.1049 255.028 48.9379C255.349 47.0937 255.389 42.2429 255.068 40.5191C254.667 38.1939 253.104 34.1449 252.342 33.303C251.941 32.9021 251.62 32.4211 251.62 32.3008C251.62 31.499 247.09 28.4121 244.404 27.3698C239.874 25.6059 239.193 25.5658 222.034 25.5257C212.894 25.4856 205.317 25.5658 205.157 25.686ZM232.538 32.7017C234.622 34.0647 234.783 35.3075 233.5 40.5191C232.859 43.0447 232.257 45.4501 232.177 45.851C232.097 46.2519 231.896 46.9735 231.736 47.4145C231.616 47.8554 231.455 48.6171 231.375 49.0581C231.215 50.0604 231.095 50.5815 230.213 53.949C229.852 55.272 229.451 56.7954 229.371 57.3566C229.25 57.9179 228.609 60.5237 227.968 63.1696C227.286 65.8155 226.645 68.3411 226.564 68.742C226.444 69.183 226.164 69.664 225.883 69.8645C225.602 70.0248 225.522 70.1852 225.723 70.1852C226.364 70.1852 224.119 72.1496 222.997 72.5906C221.794 73.0315 216.622 73.1518 216.221 72.7509C216.061 72.5906 216.101 72.2698 216.221 72.0293C216.382 71.7888 216.542 71.3879 216.622 71.1874C217.023 69.2631 219.148 60.5237 220.391 55.753C220.792 54.1094 221.433 51.3833 221.794 49.7396C222.155 48.096 222.596 46.4523 222.756 46.1316C222.916 45.8109 223.197 44.8888 223.317 44.1271C223.598 42.4835 223.598 42.4033 225.041 36.7106C225.642 34.2652 226.284 32.1805 226.484 32.0602C227.206 31.5391 231.455 32.0202 232.538 32.7017Z" fill="#FFE90A"/>
<path d="M317.568 25.6861C317.488 25.8866 317.528 26.2874 317.889 27.6906C317.969 28.0113 318.45 29.5748 318.931 31.1783C319.412 32.7418 319.893 34.3053 319.933 34.5859C319.973 34.8666 320.334 36.1093 320.695 37.312C321.657 40.3588 325.385 53.3077 325.666 54.5504C326.067 56.3144 326.027 56.3945 323.782 64.1719C322.86 67.379 322.018 70.3857 321.938 70.8668C321.857 71.3479 321.617 72.1897 321.416 72.6708C321.216 73.192 321.056 73.673 321.056 73.7933C321.056 73.9136 320.775 75.0361 320.374 76.2789C320.013 77.5216 319.653 79.0049 319.532 79.5662L319.372 80.5283L331.84 80.4882L344.348 80.4081L344.869 78.604C345.189 77.6018 345.51 76.359 345.63 75.7978C345.911 74.4347 346.232 72.9113 346.432 72.1897C347.034 70.0249 349.198 61.6462 349.519 60.0828C349.76 59.0404 350.241 57.8778 350.602 57.477C350.962 57.0761 352.045 55.6729 353.047 54.35C354.049 53.027 355.092 51.7843 355.332 51.6239C355.613 51.4636 355.853 51.0627 355.853 50.8221C355.853 50.5415 356.174 50.0203 356.575 49.6996C356.936 49.3388 357.978 48.096 358.86 46.9335C359.742 45.7709 360.664 44.6484 360.864 44.3677C361.105 44.1272 362.067 42.8443 363.069 41.5214C364.072 40.1984 365.114 38.8755 365.394 38.5949C365.675 38.2742 366.397 37.3922 366.998 36.5904C367.599 35.7485 368.161 35.0269 368.281 34.9067C368.441 34.7864 369.043 33.9846 369.724 33.1026C370.366 32.2207 371.288 31.0581 371.809 30.4968C372.33 29.9356 373.052 29.0135 373.412 28.3721C373.773 27.7708 374.214 27.2897 374.374 27.2897C374.535 27.2897 374.695 27.0091 374.695 26.6883C374.695 26.3676 374.896 26.087 375.096 26.087C375.337 26.087 375.497 25.9667 375.497 25.7663C375.497 25.5658 365.154 25.4055 363.27 25.646C363.029 25.646 362.187 26.528 361.386 27.6104C360.584 28.6527 359.582 29.8955 359.181 30.3365C358.78 30.8175 357.938 31.8599 357.256 32.7017C355.292 35.1472 350.08 41.4813 349.639 41.9624C349.439 42.2029 348.958 42.8043 348.637 43.2853C348.316 43.7263 347.916 44.1272 347.755 44.1272C347.595 44.1272 346.633 41.4813 345.63 38.194C344.628 34.9467 343.426 31.1383 342.985 29.7351C342.263 27.5302 341.982 26.5681 341.862 25.6861C341.822 25.5658 336.41 25.4857 329.755 25.4857C323.14 25.4857 317.648 25.5658 317.568 25.6861Z" fill="#FFE90A"/>
<path d="M380.387 25.6861C380.227 25.8064 379.585 27.9712 378.984 30.4968C378.343 33.0225 377.581 36.1895 377.22 37.5125C376.899 38.8354 376.579 40.0782 376.498 40.3187C376.458 40.5192 376.298 41.1606 376.178 41.7218C376.058 42.2831 375.015 46.4123 373.933 50.9424C372.81 55.4725 371.808 59.6017 371.728 60.1629C371.608 60.7242 370.766 64.0516 369.884 67.5795C369.002 71.1073 367.919 75.4771 367.518 77.241L366.797 80.5283H388.525H410.294L410.494 79.6864C410.615 79.2054 411.176 77.0005 411.737 74.7955C412.298 72.5906 412.779 70.6663 412.779 70.4659C412.779 70.3055 408.45 70.1853 403.158 70.1853H393.577L393.817 68.8623C393.937 68.1808 394.378 66.5371 394.779 65.2944C395.18 64.0115 395.621 62.3278 395.741 61.4859C395.902 60.644 396.182 59.4012 396.383 58.7197L396.784 57.4369H401.675C404.361 57.3968 407.207 57.3968 407.969 57.3968L409.412 57.3567L410.534 52.6261C411.176 50.0604 411.737 47.7352 411.857 47.4947C411.937 47.2141 410.013 47.0938 405.724 47.0938C402.276 47.1339 399.43 47.0537 399.349 46.9335C399.309 46.8132 399.67 45.0893 400.191 43.125C400.753 41.1205 401.394 38.6751 401.635 37.6728L402.116 35.8287L410.775 35.7886C415.505 35.7886 419.875 35.7485 420.476 35.7485C421.399 35.7084 421.559 35.508 421.799 33.9846C421.96 33.0625 422.441 31.1383 422.882 29.7351C424.405 24.9645 426.971 25.5258 402.236 25.4857C390.329 25.4857 380.507 25.5658 380.387 25.6861Z" fill="#FFE90A"/>
<path d="M446.895 25.6861C446.575 25.8865 444.049 30.0157 444.049 30.2963C444.049 30.3765 443.568 31.2184 442.967 32.1805C441.323 34.7062 440.962 35.3075 439.799 37.312C438.396 39.7574 437.314 41.6416 435.55 44.5681C434.708 45.9312 434.027 47.214 434.027 47.3744C434.027 47.5748 433.866 47.7352 433.626 47.7352C433.425 47.7352 433.265 47.8555 433.305 48.0158C433.345 48.2163 433.105 48.7775 432.744 49.3388C431.421 51.4234 426.009 60.6039 426.009 60.8043C426.009 60.9246 425.528 61.7665 424.926 62.6885C424.285 63.6106 423.603 64.7331 423.323 65.1741C421.759 67.7398 420.116 70.546 419.594 71.4681C419.274 72.0694 417.951 74.3144 416.708 76.3991C415.425 78.5238 414.383 80.2877 414.383 80.3679C414.383 80.4481 416.748 80.4882 419.594 80.5283L424.846 80.5684L426.329 78.1229C427.131 76.8 428.414 74.7554 429.136 73.6329L430.459 71.5883H439.84C444.971 71.5883 449.301 71.7086 449.461 71.8289C449.581 71.9892 449.782 73.5928 449.902 75.477C450.022 77.3211 450.142 79.2053 450.223 79.6062C450.343 80.3679 450.784 80.408 462.089 80.4882L473.835 80.5283L473.555 77.6819C473.234 73.7532 472.953 71.1474 472.753 69.2231C472.392 66.1362 472.111 63.1696 471.911 59.6818C471.751 57.7174 471.59 55.8332 471.55 55.4724C471.47 55.0715 471.27 53.3076 471.109 51.5838C470.949 49.8599 470.789 48.1361 470.708 47.7753C470.548 46.9334 470.027 40.92 469.866 38.1138C469.746 35.4679 469.385 32.1004 469.065 29.8954C468.944 29.0135 468.824 27.6905 468.824 26.9689C468.824 26.2874 468.704 25.646 468.584 25.646C467.662 25.4856 447.136 25.5257 446.895 25.6861ZM447.056 45.3699C447.136 46.1316 447.296 47.7352 447.457 48.9379C447.577 50.1406 447.777 52.2252 447.857 53.5481C448.338 59.8823 448.459 61.2453 448.659 62.2475L448.86 63.37H442.085C436.191 63.37 435.269 63.2899 435.47 62.7687C435.63 62.448 435.911 62.1674 436.151 62.1674C436.392 62.1674 436.432 62.0471 436.312 61.8867C436.151 61.7665 436.272 61.3656 436.552 61.0048C437.474 59.9224 440.441 54.6306 440.441 54.1094C440.441 53.8288 440.561 53.7085 440.681 53.8689C440.842 53.9891 441.403 53.2274 442.004 52.145C444.169 48.0559 446.655 43.8064 446.775 43.9267C446.855 43.9668 446.975 44.6483 447.056 45.3699Z" fill="#FFE90A"/>
<path d="M493.039 28.2919C492.598 29.8153 492.117 31.7396 491.956 32.5013C491.796 33.263 491.355 35.067 490.914 36.4701C490.473 37.8733 490.032 39.5971 489.952 40.2786C489.832 40.9601 489.391 42.7642 488.95 44.3277C488.509 45.851 488.108 47.5749 487.988 48.1361C487.867 48.6974 487.426 50.3811 486.945 51.9446C486.504 53.468 486.063 55.1919 485.983 55.7531C485.903 56.3144 485.061 59.6418 484.139 63.1696C483.217 66.6975 482.295 70.3055 482.095 71.1875C481.894 72.0695 481.694 73.192 481.573 73.633C481.493 74.114 481.132 75.2766 480.812 76.2388C480.491 77.2009 480.13 78.5239 480.09 79.2054L479.93 80.4081L492.037 80.4481L504.104 80.5283L504.304 79.4459C504.424 78.8847 504.825 77.241 505.186 75.7978C505.587 74.3546 506.108 72.1897 506.389 70.9871C506.709 69.7844 507.15 67.9403 507.391 66.8579L507.872 64.9737H509.596H511.36L511.801 67.2588C512.041 68.5416 512.602 71.1073 513.043 72.9915C513.525 74.8757 513.966 77.0405 514.046 77.8022C514.407 80.7689 513.324 80.5283 526.554 80.4882C538.22 80.4081 538.46 80.4081 538.38 79.6063C538.22 78.0829 537.899 76.3991 537.097 73.192C536.656 71.428 536.215 69.4236 536.135 68.7821C536.015 68.1006 535.614 66.3768 535.253 64.8935L534.571 62.2075L535.694 61.2053C536.335 60.644 536.977 60.1629 537.097 60.1629C537.418 60.1629 541.788 55.7932 542.79 54.5103C544.113 52.7865 545.997 48.7776 546.518 46.5326C547.56 42.2029 547.079 36.3499 545.396 33.1026C544.554 31.4991 541.547 28.5725 540.064 27.891C538.62 27.2897 537.418 26.8086 536.857 26.6883C536.656 26.6082 535.654 26.3676 534.652 26.087C533.329 25.6861 527.836 25.5658 513.324 25.5258L493.841 25.4857L493.039 28.2919ZM521.542 32.7819C523.306 34.1049 523.587 35.3877 522.785 38.635C522.384 40.2385 522.064 41.802 522.023 42.1227C521.983 42.4435 521.663 43.7664 521.262 45.0092C520.901 46.292 520.42 48.2564 520.219 49.3789C519.458 53.3478 517.052 55.1919 512.723 55.1518C510.919 55.1518 510.398 55.0315 510.438 54.5504C510.558 53.3478 515.689 32.7819 516.05 32.0603C516.331 31.4991 520.62 32.0603 521.542 32.7819Z" fill="#FFE90A"/>
<path d="M286.699 28.6528C285.496 29.4546 280.084 32.4212 278.4 33.223C276.556 34.0649 276.476 34.5058 278.2 34.5459C278.881 34.586 279.843 34.6662 280.284 34.7063C280.725 34.7464 282.529 34.9067 284.253 35.0671C286.017 35.2275 287.581 35.4279 287.781 35.5482C287.941 35.6684 288.102 34.2252 288.062 32.341C288.062 30.4568 288.142 28.733 288.302 28.5325C288.663 27.9312 287.621 27.9713 286.699 28.6528Z" fill="#FFE90A"/>
<path d="M273.389 39.2363C273.349 40.1183 273.028 41.8822 272.708 43.165C272.066 45.6105 272.106 46.0916 272.948 45.4501C273.229 45.2096 275.995 43.7263 279.082 42.1227C282.169 40.5191 284.855 39.0759 285.095 38.8755C285.296 38.675 284.815 38.5147 283.892 38.4746C283.011 38.4746 281.928 38.3944 281.487 38.3142C281.046 38.2341 279.042 38.0336 277.077 37.9133L273.429 37.6728L273.389 39.2363Z" fill="#FFE90A"/>
<path d="M286.699 41.8822C282.69 44.0872 277.719 46.733 275.795 47.6952C274.632 48.2164 273.67 48.8177 273.67 48.9781C273.67 49.1384 275.554 53.0271 277.799 57.6373C280.084 62.2075 282.369 66.8579 282.931 67.9804L283.853 69.9849L285.937 67.9804C287.06 66.8579 289.225 65.0539 290.668 63.9715C292.151 62.849 293.594 61.7665 293.875 61.4859C294.156 61.2454 295.639 60.2031 297.162 59.2008C298.686 58.1986 300.129 57.2365 300.329 57.036C300.57 56.8356 300.931 56.595 301.171 56.5148C302.855 55.7932 305.741 53.8289 305.741 53.3879C305.741 53.1073 305.381 52.1852 304.98 51.3834C304.579 50.5816 303.737 48.938 303.136 47.7353C302.534 46.5326 301.893 45.37 301.732 45.2097C301.572 45.0092 300.69 45.9313 299.768 47.2943C296.721 51.7442 295.318 52.5861 293.795 50.9424C293.193 50.301 290.227 44.8088 289.906 43.7263C289.465 42.3633 288.784 40.9201 288.583 40.9602C288.423 40.9602 287.581 41.3611 286.699 41.8822Z" fill="#FFE90A"/>
<path d="M267.736 56.475C266.533 59.2812 265.17 62.5686 264.649 63.7712C263.086 67.4996 260.761 73.8738 260.199 76.1188C259.117 80.1678 256.351 85.0587 253.424 88.0654C252.783 88.7469 251.861 89.7892 251.42 90.4307C250.979 91.032 250.418 91.7135 250.177 91.9941C249.616 92.5955 248.413 95.7224 248.413 96.5643C248.413 96.9652 248.734 97.6467 249.095 98.1278C249.736 98.8895 249.856 98.8895 251.139 98.3683C252.502 97.8071 258.435 94.3193 258.836 93.8783C258.957 93.7581 259.758 93.1166 260.64 92.4351C261.522 91.7937 262.444 91.0721 262.685 90.8315C262.925 90.6311 263.807 89.8694 264.649 89.228C266.614 87.6645 271.986 82.5731 274.632 79.8471C275.754 78.6845 277.237 77.121 277.879 76.4395C278.56 75.758 279.562 74.5954 280.124 73.8337L281.166 72.5107L278.6 67.4194C277.157 64.6532 275.193 60.8848 274.231 59.0407C272.226 55.2723 272.026 54.9516 271.023 52.8269C270.623 52.0251 270.182 51.3436 270.061 51.3436C269.941 51.3436 268.899 53.6687 267.736 56.475Z" fill="#FFE90A"/>
<path d="M303.697 58.5193C302.013 59.5216 300.129 60.7243 299.527 61.1652C295.679 64.0116 292.592 66.3769 291.83 67.1386C291.349 67.5795 290.267 68.5016 289.505 69.1831C288.102 70.3056 285.135 73.3123 282.129 76.5595C278.44 80.5284 272.186 86.7823 270.022 88.7066C268.659 89.8692 267.336 90.9917 267.095 91.2322C265.451 92.7155 262.846 94.6398 262.485 94.6398C262.244 94.6398 262.044 94.8002 262.044 95.0006C262.044 95.4416 254.307 100.172 253.024 100.493C252.462 100.613 252.021 100.854 252.021 101.054C252.021 101.615 253.545 103.059 254.146 103.059C255.068 103.059 262.725 98.8492 263.647 97.847C263.768 97.7267 264.569 97.1655 265.451 96.5641C266.333 95.9628 267.616 95.0006 268.258 94.4394C268.939 93.8781 270.182 92.8358 271.064 92.1142C273.068 90.5106 288.142 75.397 287.781 75.397C287.621 75.397 288.102 74.9961 288.783 74.5551C289.505 74.074 290.026 73.5929 289.906 73.4326C289.826 73.2321 290.187 72.8713 290.708 72.5907C291.269 72.3101 291.71 71.9092 291.71 71.7488C291.71 70.8268 304.779 61.1652 307.665 59.9626C308.347 59.6418 308.948 59.3211 308.948 59.2009C308.948 58.7198 307.505 56.7554 307.144 56.7153C306.904 56.6752 305.38 57.477 303.697 58.5193Z" fill="#FFE90A"/>
</svg>
