<svg width="1967" height="388" viewBox="0 0 1967 388" fill="none" xmlns="http://www.w3.org/2000/svg">
<path d="M1664.79 351.953H83.9613L71.2617 387.13H1651.97L1664.79 351.953Z" fill="#FFE500"/>
<path d="M1014.14 142.316C973.215 150.764 917.772 181.093 918.357 236.397C918.701 268.317 956.914 286.014 1000.76 284.792C1025.35 284.118 1048.76 279.576 1051.7 279.054L1067.99 236.473C1046.46 239.908 1025.78 245.124 1009.56 238.56C980.328 226.779 998.308 196.131 1018.97 186.577C1030.34 181.2 1042.79 178.515 1055.35 178.727C1061.51 178.854 1076.62 179.109 1082.5 192.569L1102.92 143.156C1067.8 134.377 1032.46 138.538 1014.14 142.316ZM1235.9 140.993L1217.28 191.653H1183.3L1201.79 140.993H1137.35L1086.14 281.663H1150.36L1167.87 234.031H1201.92L1184.41 281.663H1248.71L1300.12 140.993H1235.9ZM852.607 140.993L801.198 281.637H868.806L920.113 140.993H852.607ZM718.231 140.993L668.896 216.537C668.896 216.537 672.052 177.01 672.841 167.493C673.414 160.254 672.548 140.993 655.026 140.993H576.742L525.409 281.637H586.616L623.812 179.923L615.96 281.637H670.372L737.102 181.679L700.671 281.637H762.311L813.63 140.993H718.257H718.231ZM1910.17 140.993L1874.95 237.516C1875.44 227.797 1877.33 189.388 1878.53 167.29C1879.03 158.168 1877.06 151.234 1872.77 146.616C1869.54 143.264 1865.15 141.255 1860.49 140.993H1782L1730.68 281.663H1787.67L1824.05 182.048L1819.77 281.663H1915.32L1966.68 140.993H1910.17ZM1674.18 140.993L1622.86 281.637H1690.46L1741.78 140.993H1674.18ZM1388.52 177.862H1465.57L1479.12 141.018H1338.27L1286.95 281.663H1429.38L1443.2 243.699H1364.57L1370.31 228.064H1443.7L1456.28 193.447H1382.9L1388.52 177.862ZM1582.22 140.993H1516.52L1465.1 281.663H1597.08L1614.15 234.934H1547.96L1582.22 140.993Z" fill="black"/>
<path d="M11.5204 91.1634L11.6731 91.5069L12.7166 93.9879C15.2107 100.056 20.4407 112.639 26.7268 123.923C30.2771 130.284 33.6619 135.361 37.0086 139.254C33.2251 144.723 30.4817 150.842 28.9155 157.306C26.9304 165.601 27.7957 176.364 31.3333 186.822C32.7966 191.16 34.6799 195.244 36.8814 198.972L36.8305 199.01L36.8814 199.112C36.7833 199.445 36.7109 199.785 36.665 200.129C34.0819 220.612 42.773 240.586 59.9136 253.525C62.6622 255.586 65.5126 257.405 68.4648 258.944C70.9589 266.73 76.138 273.918 83.5439 279.809C88.5449 283.778 94.398 287.009 100.442 289.198C100.493 289.249 100.506 289.325 100.57 289.376C106.996 298.625 116.909 305.329 129.201 308.841C132.255 309.706 135.436 310.355 138.605 310.775C138.748 310.968 138.906 311.151 139.075 311.322C145.043 317.136 152.869 321.563 161.79 324.146C160.301 336.003 161.739 345.137 164.195 351.918H498.849C498.94 340.621 495.887 329.521 490.031 319.858C489.878 319.604 489.687 319.349 489.509 319.133C491.622 303.636 488.001 287.901 479.329 274.885C474.238 267.146 467.506 260.62 459.612 255.77C451.717 250.92 442.853 247.864 433.646 246.82C433.43 246.795 433.188 246.794 432.959 246.794C420.948 235.071 406.91 225.623 391.527 218.907L392.099 216.287C392.335 216.237 392.565 216.164 392.787 216.07C410.945 208.119 421.749 194.621 424.026 177.039C425.833 163.146 422.016 147.765 414.228 137.027C414.279 136.839 414.317 136.648 414.343 136.455C416.2 117.664 413.401 101.278 405.995 87.7539C399.976 76.711 390.84 67.9072 380.291 62.971L380.138 62.9201C377.186 52.8568 364.41 45.1471 350.781 45.5161C340.041 45.8214 328.296 50.8849 323.893 59.2434C307.516 65.1846 282.13 80.5658 274.457 119.471C268.882 123.65 264.195 128.896 260.669 134.905C257.143 140.914 254.847 147.565 253.919 154.469C251.946 169.812 257.062 185.143 267.445 196.656C251.603 196.776 235.808 198.439 220.286 201.618C220.096 201.682 219.892 201.732 219.688 201.771C204.418 190.893 184.695 186.733 167.083 191.389C166.399 191.581 165.753 191.892 165.174 192.305C159.915 190.737 154.53 189.63 149.077 188.997C148.727 188.953 148.374 188.944 148.021 188.972C145.528 180.705 141.061 173.168 135.003 167.013C134.698 166.708 133.985 166.123 133.985 166.123L133.935 166.174C133.044 160.067 131.313 153.452 130.626 151.034C128.857 145.055 126.172 138.439 118.359 130.577C114.336 126.534 109.621 123.243 104.438 120.857C105.176 118.86 105.596 117.155 105.825 116.15C105.917 115.756 105.985 115.356 106.029 114.954C106.054 114.763 107.976 95.9726 110.215 84.8023L110.279 84.3825C116.349 46.1268 116.4 45.5797 116.425 45.1599L116.45 44.9309C116.578 43.2183 116.35 41.498 115.781 39.8779C115.211 38.2577 114.313 36.7729 113.142 35.5164C110.215 32.3359 105.774 30.5166 100.939 30.5166C94.1562 30.5166 88.1122 34.0279 84.3329 40.0837C82.0933 43.6714 80.439 47.9715 79.2938 51.5719C72.4183 38.1544 65.585 24.7154 58.7938 11.2551C58.692 11.0516 58.5648 10.8608 58.4757 10.6572C56.5526 7.49052 53.5738 5.1037 50.0637 3.91685C46.5535 2.72999 42.7372 2.81917 39.2864 4.16887C36.4425 1.69873 32.7972 0.346735 29.03 0.364927C27.1467 0.364927 25.2125 0.695705 23.3038 1.33182C16.6232 3.59637 12.742 9.61398 12.7675 16.7766C7.53752 18.7613 3.97452 22.9341 2.96925 28.2775C2.2821 31.9669 3.03287 35.1475 3.37645 36.6614C3.42735 36.8777 3.5037 37.2339 3.66912 37.781C3.49822 38.009 3.34107 38.2469 3.1983 38.4934C-0.619203 44.3838 -2.54068 55.2868 11.5204 91.1634Z" fill="black"/>
<path d="M488.103 351.954H474.869C479.158 346.814 482.657 341.013 485.202 334.779C487.187 340.377 488.154 346.166 488.103 351.954ZM270.2 207.493C270.277 207.493 275.1 207.837 278.026 208.982C282.925 210.865 292.736 220.343 298.043 221.157C298.984 221.259 301.402 220.661 298.755 218.803C298.017 218.282 291.884 212.76 294.174 209.923L294.251 209.796C294.564 209.313 295.022 208.941 295.559 208.732C296.096 208.525 296.685 208.492 297.241 208.638C304.927 210.547 311.315 211.666 313.529 211.984C314.878 212.188 315.845 212.213 316.418 211.73C316.965 211.272 316.57 210.916 315.081 210.496C303.209 207.29 290.166 202.15 281.004 195.216C268.712 185.687 262.145 170.701 264.08 155.777C264.792 150.355 266.567 145.128 269.306 140.395C272.044 135.661 275.691 131.516 280.037 128.196C283.574 125.588 289.199 123.616 290.802 123.018C295.116 121.453 288.054 120.308 287.532 120.244C285.725 119.939 285.623 118.056 287.112 112.357C295.32 85.7923 313.491 74.0624 328.557 68.9099C331.204 68.083 335.238 66.9507 337.986 66.5181C342.148 65.882 340.582 63.9864 335.823 63.4394C335.823 63.4394 334.22 63.3376 335.022 62.2944C335.162 62.1417 336.052 61.073 337.388 60.2079C340.786 58.0451 345.685 56.3912 351.042 56.2259C360.713 55.9714 369.074 61.4292 370.066 66.4672C370.066 66.4672 370.41 67.485 369.239 67.5105C367.381 67.5868 365.88 68.3629 368.45 69.6605C369.048 69.9531 371.631 70.7419 375.258 72.434L375.78 72.7393C383.084 76.1743 405.823 90.1179 404.156 129.506C404.118 130.702 404.029 131.872 403.94 133.068C403.864 134.162 403.724 135.257 403.597 136.325C401.472 136.071 400.53 137 402.07 138.539C403.177 139.658 405.925 142.966 407.516 145.574C412.631 154.098 415.151 165.383 413.828 175.751C412.021 189.822 403.368 198.397 394.74 203.511C387.222 207.701 379.145 210.799 370.753 212.709C368.476 213.231 369.544 216.221 380.119 216.068C381.01 216.17 382.944 216.259 383.491 217.315C384.725 219.605 382.6 224.096 378.019 226.831C374.049 229.197 377.218 229.694 382.728 228.027C384.331 227.747 388.543 229.465 389.103 229.719C398.048 233.714 420.559 245.418 437.483 268.42C449.19 285.366 453.428 298.763 449.788 307.121C446.225 315.251 435.651 316.764 435.575 316.764L435.396 316.79C394.486 323.202 323.544 311.892 274.603 297.376C263.427 293.99 252.464 289.937 241.773 285.239C252.564 261.652 248.352 231.831 230.651 211.666L229.926 210.865C243.225 208.552 256.703 207.423 270.2 207.493Z" fill="white"/>
<path d="M470.365 280.951C478.217 292.783 481.054 306.994 478.319 320.963C476.033 332.648 469.905 343.236 460.911 351.038C461.178 341.267 459.447 329.894 452.321 320.861C455.134 318.609 457.768 315.594 459.549 311.574C464.97 299.36 460.491 282.707 446.226 262.097C446.201 262.046 446.175 262.008 446.124 261.97L445.208 260.761C455.496 264.7 464.294 271.76 470.365 280.951ZM222.559 218.791C238.872 237.365 241.646 265.634 229.087 286.04C215.013 308.902 189.805 320.212 166.327 314.182C163.017 313.333 159.805 312.139 156.745 310.62C158.972 310.276 161.173 309.831 163.324 309.22C186.433 302.923 203.675 281.409 206.245 255.761C207.861 239.553 203.319 223.32 193.775 211.221C190.463 207.012 186.538 203.324 182.131 200.28C189.783 200.401 197.326 202.11 204.284 205.299C211.241 208.487 217.46 213.086 222.546 218.803L222.559 218.791Z" fill="white"/>
<path d="M185.341 218.003C193.167 227.926 196.883 241.272 195.521 254.694C193.384 275.927 179.322 293.649 160.477 298.789C153.501 300.729 146.192 301.164 139.035 300.063C131.877 298.962 125.038 296.35 118.968 292.403C141.924 291.957 163.989 276.042 171.395 252.849C175.109 241.238 174.867 228.724 170.708 217.265C168.81 212.085 166.1 207.241 162.678 202.915C172.438 206.019 179.806 210.942 185.341 218.003Z" fill="white"/>
<path d="M149.435 218.653C150.275 214.226 150.618 209.824 150.542 205.499C161.816 216.44 166.27 233.564 161.193 249.517C154.194 271.501 130.984 285.445 109.427 280.598C100.342 278.562 89.7415 272.888 83.3027 264.415C87.1839 265.255 91.1541 265.687 95.1118 265.687C102.702 265.691 110.21 264.105 117.151 261.031C133.732 253.818 145.783 237.966 149.435 218.653Z" fill="white"/>
<path d="M133.327 182.482C133.352 182.508 133.378 182.533 133.378 182.508C139.129 192.151 141.178 204.314 138.849 216.642C135.884 232.417 126.175 245.33 112.878 251.144C97.7221 257.773 80.3274 255.444 66.3553 244.872C55.2591 236.476 48.4767 224.568 47.1915 211.718L47.166 211.642C48.2858 212.609 49.4183 213.525 50.589 214.377C59.0257 220.522 69.4093 223.779 80.5564 223.779C88.1278 223.779 93.701 222.252 94.7699 221.959C114.43 216.336 124.063 204.428 128.695 195.434C131.125 190.79 132.512 186.312 133.327 182.482Z" fill="white"/>
<path d="M12.3305 43.8604L12.7504 43.5551C13.1231 43.2064 13.5718 42.9494 14.0611 42.8045L14.5319 42.7282C15.0115 42.7079 15.4909 42.6825 15.9698 42.6518C16.288 42.7027 16.6315 42.7791 16.9624 42.9063C20.0546 44.0513 22.3323 48.0206 23.0704 53.5166C25.1573 69.3558 32.5123 79.8516 32.8305 80.2969C33.0109 80.5459 33.2387 80.7568 33.5007 80.9177C33.7627 81.0788 34.054 81.1866 34.3576 81.235C34.6613 81.2834 34.9716 81.2715 35.2706 81.2C35.5698 81.1287 35.8519 80.9989 36.1008 80.8185C36.603 80.4515 36.9417 79.9024 37.044 79.2889C37.1461 78.6753 37.0041 78.0462 36.648 77.5362C31.9025 70.0766 28.861 61.6624 27.7405 52.8932C26.7352 45.5143 23.414 40.2473 18.5912 38.4789C17.4604 38.0604 16.2588 37.8659 15.0536 37.9064C14.4993 36.7248 14.0314 35.5045 13.6539 34.2552C13.1958 32.2196 12.305 28.2376 16.7333 26.6982C17.0087 26.5985 17.289 26.5137 17.5732 26.4437C17.7259 26.4692 17.8786 26.4437 18.0186 26.4437C21.238 26.0621 25.4754 27.5124 29.7128 42.7536C33.594 56.7226 42.4633 70.3608 42.8323 70.946C42.9973 71.2076 43.2134 71.4332 43.4675 71.6094C43.7218 71.7857 44.0087 71.909 44.3116 71.9718C44.6144 72.0348 44.9268 72.0361 45.2302 71.9758C45.5336 71.9154 45.8217 71.7945 46.0772 71.6203C46.5903 71.271 46.9476 70.736 47.0733 70.1283C47.1991 69.5205 47.0839 68.8877 46.7516 68.3634C46.6498 68.2362 37.9077 54.7507 34.2175 41.4941C32.3851 34.9294 29.8401 27.7923 25.45 24.141C24.8264 22.5253 24.1393 20.7314 23.9357 20.1335C23.1976 17.8689 22.4341 12.9073 26.6716 11.4569C27.4232 11.1872 28.2146 11.0454 29.013 11.0371C32.3851 11.0371 34.1157 13.9632 34.9683 16.1642L35.3882 17.1311L54.5775 63.3636C54.7047 63.7071 54.8956 63.9997 55.1756 64.2033C55.4705 64.4653 55.8315 64.6419 56.2195 64.7137C56.6076 64.7854 57.0078 64.7497 57.377 64.6104C57.908 64.3875 58.3312 63.9666 58.5568 63.4369C58.7826 62.9073 58.793 62.3106 58.5859 61.7733L39.9565 16.8257C40.3508 15.8425 41.1002 15.0433 42.0561 14.5866C43.0019 14.071 44.0585 13.7916 45.1355 13.7724C47.9732 13.7724 49.3602 16.1387 49.3602 16.1387C49.3602 16.1387 74.1613 65.221 78.8568 73.7068C76.948 76.9128 75.421 80.0424 75.2174 80.8185C74.8739 82.0525 75.7392 83.1975 76.3372 82.0017C77.7243 79.9407 79.7348 77.4853 81.4145 75.5133L81.4654 75.4497C81.5407 75.3698 81.5972 75.2743 81.6308 75.1698C82.8015 73.0834 86.4409 63.2873 87.9042 60.2339C88.9222 55.7557 90.831 49.7127 93.2745 45.7942C95.3868 42.3847 98.3772 41.2142 100.935 41.2142C103.734 41.2142 105.987 42.6518 105.885 44.1022C105.809 44.7383 99.8151 82.7014 99.8151 82.7014C98.2525 91.2699 97.0042 99.8924 96.074 108.552C96.0231 110.168 95.8195 111.784 95.565 113.323C95.5484 113.494 95.5281 113.664 95.5013 113.832C95.5013 113.832 95.4377 114.176 95.285 114.774C94.0125 120.46 91.7854 124.99 91.7854 124.99L93.7453 134.022L93.7707 134.01C94.5342 137.814 95.4123 141.897 95.7304 143.131C97.1683 148.271 95.3359 151.261 96.2394 152.279C97.5373 153.716 100.706 146.884 101.52 143.322C102.169 140.498 101.1 134.747 100.184 130.753C102.907 132.025 106.954 134.353 110.759 138.182C117.274 144.747 119.081 149.836 120.328 154.047C121.562 158.245 123.611 167.278 123.764 172.138C123.916 177.011 122.262 202.862 91.9126 211.488C91.9126 211.488 87.2807 212.9 80.651 212.9C73.8813 212.9 65.0374 211.437 56.9443 205.547C42.2597 195.038 36.5334 172.011 39.4602 159.861C40.6271 155.112 42.5843 150.592 45.2501 146.49C46.688 147.355 48.1005 148.017 49.5638 148.5L50.4291 152.673C50.5309 153.182 52.9105 164.861 57.3897 168.41C60.0111 170.497 64.3503 170.65 65.6101 170.65C66.9462 170.65 70.1147 170.497 70.7001 169.11C70.7891 168.881 70.9418 168.283 70.3437 167.685C70.1147 167.431 69.7202 167.24 68.9313 166.795C66.768 165.624 62.7342 163.436 61.8944 159.467C61.4235 157.228 59.5657 149.34 58.4841 144.696C62.9887 141.096 63.4468 137.088 57.5679 138.361C54.0049 139.098 50.6964 137.445 48.1768 135.396C36.3426 124.964 23.923 92.8664 21.4798 87.205C11.2998 61.5062 9.21286 47.7026 12.3432 43.8477L12.3305 43.8604ZM172.373 326.293C174.6 326.535 176.827 326.662 179.066 326.662C201.132 326.662 222.675 314.92 236.342 294.666C247.985 299.958 261.855 304.907 271.514 307.77C299.911 316.062 328.908 322.136 358.247 325.937C376.507 328.303 393.241 329.461 407.875 329.461C418.78 329.461 428.54 328.825 436.939 327.502C437.511 327.426 439.687 327.082 442.563 326.102C449.18 333.151 450.491 343.341 450.083 351.992H175.936C173.289 346.712 170.986 338.443 172.373 326.293Z" fill="white"/>
<path d="M323.457 139.619C324.642 141.068 326.199 142.167 327.962 142.799C329.45 143.372 331.054 143.652 332.746 143.779C332.746 143.779 335.418 144.046 337.047 143.995C343.766 143.728 350.078 133.334 350.281 123.169C350.472 113.894 349.263 106.783 342.621 102.635C341.931 102.21 341.202 101.853 340.445 101.567C337.559 100.512 334.42 100.366 331.448 101.147C327.987 102.088 325.34 104.582 323.533 107.661C321.743 110.858 320.487 114.326 319.818 117.927C319.054 121.579 318.825 125.23 319.309 128.932C319.843 132.634 321.077 136.693 323.457 139.619ZM322.159 123.245C322.566 118.843 325.086 105.078 336.004 106.172C344.326 107.012 346.566 113.195 347.151 118.589L347.202 119.314C347.724 124.657 346.731 128.347 345.42 131.782C344.873 133.156 344.262 134.454 343.512 135.649C341.476 138.881 339.007 140.866 336.895 140.942H336.284C339.974 138.983 342.875 134.008 343.41 127.94C344.135 119.81 340.292 112.826 334.846 112.355C332.25 112.126 329.769 113.424 327.783 115.714C329.718 115.714 331.346 117.698 331.474 120.256C331.601 122.876 330.074 125.09 328.063 125.179C326.422 125.255 324.984 123.932 324.45 122.024C324.037 123.392 323.769 124.799 323.648 126.222C323.202 131.197 324.462 135.726 326.753 138.601C326.423 138.321 326.116 138.014 325.837 137.685C324.119 135.624 322.91 132.367 322.388 128.538C322.125 126.787 322.047 125.012 322.159 123.245ZM385.746 162.786C384.601 162.659 384.282 163.664 384.753 164.033C384.906 164.16 385.046 164.313 385.199 164.503C384.779 164.732 384.384 165.012 383.99 165.178C381.407 166.424 378.645 167.264 375.846 167.913C368.941 169.356 361.856 169.734 354.837 169.033C343.256 168.133 331.889 165.416 321.154 160.979C320.187 160.572 319.27 160.127 318.329 159.707C317.858 159.504 317.413 159.211 316.916 159.033V159.007C316.573 158.888 316.206 158.851 315.847 158.898C315.487 158.945 315.142 159.076 314.842 159.281C314.542 159.484 314.294 159.755 314.117 160.074C313.94 160.39 313.839 160.744 313.824 161.107C313.773 162.264 314.511 162.989 315.504 163.511C318.354 165 321.446 166.145 324.462 167.239C327.122 168.435 329.069 170.839 331.028 172.862C333.459 175.368 336.055 177.696 339.134 179.477C345.059 182.764 351.91 183.976 358.603 182.925C361.988 182.404 365.22 181.157 368.084 179.35C370.196 178.027 372.092 176.424 374.001 174.847C375.146 173.931 376.304 172.989 377.615 172.239C378.378 171.819 383.608 169.681 386.395 168.091C386.395 169.083 386.331 169.923 387.006 170.05C387.718 170.178 388.367 168.829 388.647 167.684C388.86 166.695 388.762 165.665 388.367 164.732C388.1 163.982 386.878 162.951 385.746 162.786ZM361.314 177.849C358.29 178.741 355.121 179.03 351.986 178.701C348.874 178.471 345.828 177.686 342.99 176.386C339.952 174.85 337.211 172.787 334.897 170.292C346.12 173.053 357.954 174.554 369.381 173.307C367.004 175.312 364.26 176.853 361.314 177.849ZM318.571 155.534C318.316 154.618 317.133 154.593 316.738 154.593C315.579 154.626 314.434 154.859 313.353 155.28C310.656 156.247 308.416 159.605 308.543 161.666C308.543 161.972 308.67 162.239 308.861 162.442C308.989 162.576 309.143 162.682 309.314 162.749C309.485 162.818 309.669 162.847 309.854 162.837H309.905C310.427 162.811 310.719 162.417 310.77 161.921C310.88 161.09 311.265 160.319 311.864 159.733C312.577 159.007 313.799 157.85 317.285 157.074C317.909 156.946 318.8 156.45 318.571 155.534ZM392.452 116.986C391.536 113.576 389.678 110.51 386.687 108.716C384.112 107.215 381.13 106.557 378.162 106.834C377.388 106.911 376.625 107.069 375.884 107.304C368.631 109.62 365.729 116.134 363.579 125.077C361.225 134.873 364.521 146.438 370.705 148.397C372.232 148.868 374.79 149.288 374.79 149.288C376.406 149.593 377.971 149.746 379.498 149.568C381.318 149.407 383.057 148.747 384.524 147.659C387.502 145.471 389.652 141.883 391.065 138.461C392.477 135.026 393.177 131.464 393.368 127.774C393.625 124.149 393.316 120.518 392.452 116.986ZM389.805 132.265C389.473 133.997 388.967 135.689 388.291 137.316C386.827 140.84 384.881 143.652 382.768 145.217C381.866 145.878 380.819 146.313 379.714 146.489C383.188 144.402 385.886 139.53 386.433 133.665C387.158 125.523 383.443 118.551 378.085 118.093C375.54 117.876 373.084 119.187 371.15 121.477C373.059 121.451 374.65 123.436 374.777 126.006C374.866 128.614 373.377 130.828 371.405 130.917C369.814 131.019 368.402 129.683 367.88 127.787C367.511 129.11 367.244 130.497 367.091 131.985C366.595 137.405 368.109 142.329 370.73 145.14C369.102 144.148 367.664 141.858 366.747 138.805C366.348 137.442 366.076 136.045 365.933 134.632C365.392 130.44 365.895 126.179 367.396 122.227C367.464 121.993 367.536 121.761 367.613 121.528C369.547 116.502 373.186 111.134 381.165 112.457C391.637 114.098 390.543 127.914 389.805 132.265Z" fill="black"/>
</svg>
